<?xml version="1.0" standalone="no"?>
<!DOCTYPE svg PUBLIC "-//W3C//DTD SVG 20010904//EN"
 "http://www.w3.org/TR/2001/REC-SVG-20010904/DTD/svg10.dtd">
<svg version="1.0" xmlns="http://www.w3.org/2000/svg"
 width="260.000000pt" height="260.000000pt" viewBox="0 0 260.000000 260.000000"
 preserveAspectRatio="xMidYMid meet">
<metadata>
Created by potrace 1.14, written by Peter Selinger 2001-2017
</metadata>
<g transform="translate(0.000000,260.000000) scale(0.100000,-0.100000)"
fill="#000000" stroke="none">
<path d="M796 2593 c-10 -10 -7 -23 5 -23 5 0 8 4 5 8 -3 5 1 9 9 9 11 0 12
-4 4 -14 -14 -16 -9 -16 25 -3 39 14 31 2 -8 -14 -40 -17 -64 -15 -78 5 -7 11
-9 9 -5 -9 3 -12 2 -20 -2 -18 -4 3 -13 1 -21 -4 -8 -5 -22 -4 -33 2 -17 9
-19 8 -14 -6 5 -12 3 -15 -6 -9 -18 11 -38 13 -31 2 3 -5 10 -6 16 -3 7 4 8 2
4 -5 -4 -6 -11 -9 -16 -6 -13 8 -39 -6 -34 -19 2 -6 -5 -12 -16 -13 -12 -1
-18 2 -14 9 4 7 2 8 -5 4 -9 -6 -9 -11 0 -22 10 -12 8 -13 -14 -5 -27 10 -44
0 -32 -18 3 -6 -3 -8 -14 -6 -11 2 -27 -6 -38 -18 -13 -15 -13 -18 -2 -9 13
10 19 9 30 -5 13 -16 12 -17 -3 -4 -16 12 -22 9 -20 -9 0 -3 -8 -6 -18 -6 -10
0 -16 4 -14 8 3 4 -2 5 -10 2 -10 -4 -16 -1 -16 7 0 7 -3 9 -6 6 -4 -4 -1 -13
6 -22 11 -13 10 -14 -4 -9 -11 4 -16 2 -14 -6 2 -7 -3 -15 -11 -18 -9 -3 -11
0 -6 8 5 8 4 11 -3 6 -6 -3 -9 -15 -7 -25 3 -15 -1 -18 -18 -13 -19 5 -20 3
-10 -10 10 -12 10 -14 -5 -13 -9 0 -24 5 -32 10 -12 7 -13 6 -4 -6 6 -8 11
-22 11 -33 0 -17 -1 -17 -13 -2 -8 11 -14 13 -19 7 -3 -6 -1 -11 4 -11 6 0 11
-5 11 -10 0 -6 -8 -10 -17 -8 -13 2 -18 -3 -17 -19 0 -16 -3 -20 -11 -13 -6 5
-16 5 -25 -2 -13 -8 -12 -9 2 -5 12 4 16 0 15 -13 -1 -15 -4 -17 -16 -7 -12 9
-13 9 -7 0 5 -9 1 -13 -11 -13 -10 0 -14 -3 -8 -8 10 -6 11 -20 5 -39 -1 -5
-2 -10 -2 -13 0 -3 -8 -7 -19 -7 -12 -1 -17 3 -13 9 4 6 2 8 -4 4 -6 -3 -9
-16 -7 -27 3 -16 1 -18 -9 -10 -16 14 -27 4 -19 -17 5 -11 3 -13 -8 -7 -12 7
-12 6 -1 -7 10 -13 10 -18 1 -24 -8 -5 -9 -3 -4 6 5 8 4 11 -3 6 -6 -4 -9 -13
-5 -21 3 -8 -1 -15 -8 -15 -7 0 -9 -3 -6 -6 4 -4 13 -1 22 6 13 11 14 10 9 -4
-3 -9 -16 -16 -27 -16 -16 0 -18 -3 -9 -12 7 -7 12 -16 12 -21 0 -5 -7 -1 -16
7 -20 20 -37 11 -28 -16 5 -16 3 -19 -7 -12 -12 6 -12 5 -1 -8 10 -13 10 -18
1 -24 -8 -5 -9 -3 -4 6 5 9 4 11 -3 6 -7 -4 -8 -15 -2 -30 5 -13 6 -27 3 -30
-4 -3 0 -6 8 -6 8 0 4 -7 -9 -16 -13 -9 -30 -13 -38 -10 -8 3 -13 2 -10 -3 3
-5 15 -11 26 -14 11 -3 18 -1 15 3 -3 5 -1 11 4 15 6 3 8 -4 6 -16 -3 -15 0
-19 11 -15 9 3 12 2 9 -5 -4 -6 -13 -8 -21 -5 -7 3 -20 -5 -29 -17 -8 -12 -15
-16 -15 -9 0 19 4 27 13 24 5 -1 6 2 2 7 -3 6 -12 8 -20 5 -12 -5 -14 -57 -14
-314 0 -325 -2 -309 38 -301 2 1 -4 12 -13 25 -10 16 -12 27 -6 31 6 4 9 1 8
-6 -2 -6 3 -14 11 -17 9 -3 11 0 6 8 -6 9 -4 11 5 5 10 -6 12 -4 6 11 -6 15
-5 16 5 7 10 -10 9 -16 -5 -32 -16 -18 -16 -20 1 -37 16 -16 16 -17 1 -11 -10
3 -20 1 -24 -5 -4 -7 -3 -8 4 -4 16 10 15 -6 -1 -24 -6 -8 -1 -6 12 5 20 16
23 17 18 4 -3 -9 -1 -21 5 -27 6 -6 6 -12 -3 -17 -8 -5 -10 -4 -5 3 4 7 2 12
-3 12 -16 0 -13 -16 4 -30 8 -7 13 -16 10 -20 -3 -5 -1 -12 5 -15 8 -5 7 -11
-1 -21 -10 -12 -10 -15 2 -12 9 2 14 -5 13 -20 -1 -12 1 -20 4 -17 3 3 14 -3
25 -12 12 -11 17 -12 12 -4 -6 10 -4 12 4 7 9 -6 9 -11 0 -22 -9 -11 -9 -14 1
-14 10 0 10 -3 1 -14 -8 -10 -9 -16 -1 -21 6 -3 7 -11 4 -17 -4 -6 -2 -8 4 -4
6 3 14 1 17 -5 4 -5 13 -8 21 -5 17 6 28 -10 13 -20 -8 -5 -8 -8 0 -14 7 -4
13 -16 14 -28 0 -11 4 -20 7 -19 15 3 50 -16 50 -29 0 -8 4 -13 9 -10 11 7 23
-22 15 -36 -4 -7 2 -7 17 -3 20 7 22 5 12 -6 -9 -11 -8 -19 3 -33 10 -14 14
-16 14 -5 0 12 2 12 9 0 7 -11 10 -11 15 0 3 8 4 4 2 -9 -2 -12 0 -20 4 -17 5
3 10 2 13 -2 2 -5 2 -2 0 5 -1 8 2 12 9 10 6 -2 12 -12 14 -22 1 -10 8 -24 15
-30 9 -8 9 -6 0 12 -8 14 -8 22 -1 22 10 0 14 -20 11 -47 -2 -14 48 -18 65 -5
5 4 1 -1 -9 -11 -25 -23 -1 -23 27 0 12 10 15 11 9 3 -18 -19 -16 -43 1 -37 8
3 20 -2 28 -11 11 -13 11 -14 -1 -7 -10 5 -12 4 -7 -4 5 -7 16 -9 28 -5 14 4
18 2 14 -5 -4 -6 -2 -11 3 -11 6 0 11 6 11 13 1 6 8 1 16 -13 8 -14 13 -17 10
-8 -3 10 0 20 6 24 7 5 8 2 3 -6 -6 -9 -1 -10 16 -5 13 3 20 3 14 -2 -5 -4
-17 -17 -25 -28 -8 -11 -11 -17 -6 -13 5 4 18 3 29 -3 14 -8 18 -8 13 0 -4 6
-2 11 3 11 6 0 11 -7 11 -15 0 -10 9 -14 29 -11 23 2 28 0 24 -13 -5 -13 -3
-14 7 -4 11 10 16 9 25 -4 10 -13 14 -13 20 -3 5 9 4 11 -3 6 -7 -4 -12 -3
-12 3 0 5 9 9 20 8 11 -1 19 -6 16 -12 -2 -7 1 -12 7 -12 7 0 19 -4 28 -7 10
-5 16 -1 17 9 1 8 3 22 4 30 1 8 5 12 10 9 4 -3 4 -13 -2 -23 -6 -12 -5 -22 3
-31 9 -10 9 -11 0 -6 -7 4 -13 2 -13 -3 0 -15 13 -14 29 2 11 10 13 9 8 -6 -6
-15 -3 -16 13 -7 13 7 21 7 26 -2 4 -7 3 -8 -4 -4 -7 4 -12 3 -12 -3 0 -5 9
-9 20 -8 12 1 18 7 16 14 -3 7 1 10 9 6 8 -3 13 -9 10 -13 -3 -5 0 -12 6 -16
7 -4 9 -3 5 4 -3 6 -2 13 4 17 5 3 10 0 10 -7 0 -9 3 -9 10 2 5 8 10 10 10 4
0 -7 7 -15 16 -18 13 -5 14 -4 6 7 -9 10 -8 14 3 14 8 0 15 -4 15 -9 0 -4 7
-8 16 -8 8 0 12 5 9 11 -4 6 3 5 14 -3 18 -11 23 -11 31 2 8 12 10 12 10 1 0
-11 3 -11 16 0 13 10 17 10 25 -2 7 -12 9 -12 9 1 0 12 2 12 9 2 7 -11 9 -11
14 2 4 10 15 14 29 12 13 -3 27 -5 31 -5 5 -1 6 -5 3 -9 -3 -5 2 -9 10 -9 10
0 8 7 -8 25 l-23 25 27 -17 c27 -17 54 -14 42 5 -3 5 -2 9 3 8 21 -4 24 2 12
19 -13 15 -12 16 4 3 14 -11 17 -11 17 0 1 8 7 3 15 -11 8 -14 14 -19 15 -12
0 7 4 11 9 7 5 -3 12 -1 16 4 3 6 -4 8 -15 6 -11 -2 -18 0 -15 5 3 5 -3 13
-12 19 -10 6 -13 11 -7 11 6 0 17 -7 24 -15 9 -11 16 -12 25 -5 10 8 15 8 21
-1 5 -8 3 -9 -6 -4 -8 5 -11 4 -7 -3 4 -5 15 -9 25 -7 9 2 21 4 25 4 5 1 6 5
2 10 -6 11 28 7 46 -5 8 -4 8 0 0 15 -11 20 -10 20 16 10 23 -8 26 -8 16 2
-17 17 -16 34 1 20 10 -9 17 -7 27 6 9 11 10 14 2 9 -9 -5 -11 -2 -6 10 5 14
8 13 20 -7 8 -13 12 -16 9 -7 -2 9 2 19 10 22 7 3 13 2 11 -2 -2 -7 6 -12 18
-12 3 0 0 10 -6 23 -9 18 -9 20 2 10 17 -17 32 -16 26 1 -6 15 17 16 30 1 4
-4 2 -5 -4 -1 -7 4 -13 2 -13 -3 0 -13 13 -14 24 -3 11 10 30 9 39 -3 5 -6 7
-3 3 8 -3 9 -1 17 4 17 6 0 10 -10 10 -21 0 -19 2 -20 18 -8 9 7 14 9 10 5 -5
-5 1 -16 12 -23 11 -8 18 -18 15 -23 -3 -4 3 -16 13 -27 9 -10 14 -14 10 -8
-5 7 -2 12 7 12 13 0 20 -23 16 -49 -2 -13 17 -9 23 5 4 6 4 2 2 -10 -2 -12 2
-24 10 -27 8 -3 11 1 8 12 -2 9 1 7 7 -5 6 -12 20 -24 31 -27 16 -4 19 -11 16
-30 -4 -21 -3 -24 8 -15 10 8 14 8 14 0 0 -6 7 -11 15 -11 8 0 15 -4 15 -8 0
-16 37 -52 46 -44 4 4 2 -2 -6 -12 -14 -17 -13 -18 6 -12 14 4 26 1 35 -11 13
-16 12 -17 -4 -4 -15 12 -17 12 -11 -2 5 -15 34 -30 59 -32 6 0 9 -11 7 -24
-2 -15 0 -21 7 -17 6 4 11 1 11 -6 0 -9 3 -9 10 2 5 8 10 10 10 4 0 -5 -5 -15
-12 -22 -16 -16 4 -16 21 1 11 10 12 8 2 -10 -8 -16 -8 -22 3 -26 7 -3 18 -1
24 5 12 12 37 -26 27 -42 -3 -5 0 -12 6 -16 8 -4 9 -3 5 4 -4 7 -3 12 3 12 5
0 18 3 28 6 16 6 16 5 -2 -9 -11 -9 -18 -17 -15 -18 17 -6 178 -4 168 2 -6 4
-16 5 -20 3 -4 -3 -5 3 -1 12 5 13 3 15 -7 9 -9 -5 -11 -4 -6 3 5 9 15 7 34
-5 26 -17 26 -17 13 0 -12 15 -12 20 -1 30 10 9 11 9 6 -1 -11 -18 2 -15 27 8
12 11 28 18 36 15 10 -4 9 0 -4 15 -16 18 -17 20 -2 14 12 -4 17 -1 18 12 1
11 2 34 2 52 1 18 9 37 17 43 13 9 13 10 0 8 -29 -3 -41 1 -35 11 4 6 10 8 14
6 4 -3 8 1 8 9 0 8 -4 12 -9 9 -4 -3 -8 7 -8 21 0 15 -4 24 -10 20 -6 -3 -10
0 -10 8 0 8 -9 17 -20 20 -11 3 -20 11 -20 19 0 10 3 9 10 -2 6 -9 10 -10 10
-3 0 19 -21 27 -31 12 -7 -11 -9 -9 -9 6 0 11 -7 31 -15 45 -16 27 -21 19 -6
-9 7 -13 6 -18 -3 -18 -7 0 -13 7 -12 16 1 9 -5 15 -13 13 -12 -3 -12 0 -2 12
11 13 11 17 -2 22 -9 3 -21 2 -28 -2 -8 -4 -9 -3 -5 4 4 6 0 24 -8 39 -17 32
-22 23 -5 -10 10 -21 10 -21 -5 -3 -9 11 -16 24 -16 29 0 5 -7 6 -16 3 -8 -3
-13 -2 -9 3 9 15 -6 40 -21 34 -9 -3 -14 2 -14 17 0 20 -2 21 -17 9 -11 -10
-14 -10 -9 -1 5 8 1 12 -11 13 -13 1 -11 3 7 9 22 7 22 8 5 10 -11 1 -23 2
-27 1 -4 0 -5 6 -2 14 5 11 2 13 -10 9 -12 -4 -16 0 -16 15 0 12 -5 21 -11 21
-5 0 -7 -5 -3 -11 4 -8 0 -7 -15 1 -18 9 -21 30 -5 30 3 0 2 -4 -1 -10 -3 -5
0 -7 9 -4 12 5 13 9 3 19 -7 7 -14 10 -17 6 -3 -3 -11 -7 -19 -9 -12 -3 -12
-1 0 14 13 16 12 17 -8 12 -20 -5 -21 -4 -12 14 6 11 8 22 5 26 -3 3 -6 -1 -6
-9 -1 -9 -8 -6 -20 10 -11 13 -20 20 -20 15 0 -4 7 -15 16 -25 10 -11 12 -19
4 -24 -6 -3 -10 -3 -8 2 2 11 -35 73 -44 73 -13 0 -9 30 5 31 6 0 3 4 -8 9
-11 5 -15 9 -9 9 6 1 10 12 9 26 -2 14 1 23 5 20 5 -3 12 0 15 6 4 5 14 8 22
4 13 -4 14 -3 3 10 -14 17 0 21 16 5 13 -13 13 28 0 49 -7 10 -5 12 3 6 9 -5
11 1 8 23 -5 28 -3 30 23 28 16 -1 27 1 24 5 -2 4 2 10 8 13 7 3 2 3 -11 0
-16 -4 -21 -3 -17 5 4 6 14 11 23 11 9 0 13 6 9 15 -3 8 -1 15 3 15 5 0 12 7
15 16 6 15 4 15 -11 3 -15 -12 -16 -12 -8 1 4 8 15 24 24 34 9 11 10 16 4 12
-7 -4 -13 -2 -13 4 0 6 -5 8 -12 4 -10 -6 -10 -5 -1 8 7 8 9 19 5 23 -4 5 -1
5 6 1 7 -4 9 -13 6 -19 -4 -7 -3 -9 1 -4 12 10 12 80 0 90 -6 5 -3 7 8 3 9 -3
17 -1 17 4 0 6 5 10 11 10 8 0 7 -5 -2 -16 -7 -9 -14 -26 -15 -37 -2 -12 0
-16 2 -9 3 6 9 10 14 7 4 -2 7 5 6 18 -1 14 4 21 13 19 12 -3 12 0 1 12 -7 9
-9 16 -5 16 4 0 2 6 -4 14 -9 10 -9 16 -1 21 8 5 6 15 -5 32 -10 14 -13 23 -8
20 6 -4 19 0 29 8 17 13 17 14 1 9 -13 -5 -16 -2 -11 10 3 9 10 13 15 10 5 -3
6 2 3 10 -3 9 -10 13 -15 10 -5 -3 -9 0 -9 5 0 6 5 11 11 11 5 0 7 6 3 12 -11
17 -13 48 -3 48 15 0 17 30 3 45 -9 8 -11 15 -5 15 6 0 11 5 11 11 0 5 -4 8
-8 5 -5 -3 -9 1 -9 9 0 8 4 12 8 9 4 -2 11 1 15 7 4 8 3 9 -5 5 -8 -5 -10 0
-7 18 4 21 1 26 -12 24 -11 -2 -17 4 -17 17 0 14 6 19 20 17 18 -2 19 -2 2 8
-9 6 -21 9 -26 6 -4 -3 -7 6 -5 20 2 20 -1 24 -14 19 -9 -3 -13 -3 -10 1 4 4
3 16 -3 27 -8 14 -8 18 0 13 6 -4 11 -2 11 4 0 6 5 8 11 5 6 -4 5 2 -2 13 -7
12 -17 18 -23 15 -5 -4 -7 0 -3 9 3 9 0 21 -6 28 -9 9 -9 11 -1 7 7 -4 15 0
18 9 3 8 2 12 -3 9 -5 -3 -12 -1 -16 5 -3 5 -2 10 4 10 6 0 8 7 5 15 -4 8 -11
12 -18 8 -6 -4 -5 1 3 10 12 16 12 17 -5 10 -17 -6 -17 -5 -6 9 11 14 10 18
-10 28 -22 11 -22 10 -4 -4 11 -9 15 -16 8 -16 -6 0 -17 9 -25 20 -8 11 -16
18 -19 15 -2 -3 -5 2 -5 10 0 11 4 12 11 5 5 -5 14 -10 20 -10 5 0 -1 8 -12
19 -12 10 -22 28 -22 40 0 19 -10 26 -33 22 -5 -1 -6 3 -2 9 3 6 10 8 15 5 5
-3 11 -1 14 4 3 4 -2 8 -12 8 -32 0 -42 3 -42 13 0 5 7 7 15 4 8 -4 15 -1 15
5 0 6 -3 10 -7 9 -17 -3 -43 15 -42 31 0 10 2 11 6 4 2 -7 9 -13 15 -13 7 0 7
5 -1 13 -6 8 -9 17 -6 21 3 3 -1 2 -7 -4 -18 -15 -25 -12 -31 10 -3 11 -13 20
-24 20 -15 0 -16 2 -3 10 13 8 12 10 -3 10 -10 0 -16 4 -12 9 5 9 -32 27 -48
23 -4 -1 -3 6 2 17 13 23 -11 52 -25 30 -5 -8 -3 -9 6 -4 9 6 11 4 5 -4 -5 -9
-13 -7 -29 8 -12 12 -25 19 -28 16 -3 -3 -4 7 -2 22 2 15 1 22 -2 16 -6 -14
-25 -18 -23 -5 4 22 -3 31 -18 25 -12 -5 -14 -3 -8 7 6 10 3 12 -14 7 -16 -4
-21 -2 -17 8 2 7 -1 21 -9 31 -11 16 -15 16 -29 4 -10 -7 -16 -9 -15 -4 4 21
-2 28 -12 14 -8 -11 -9 -8 -5 15 l6 30 -15 -25 -14 -25 -1 23 c0 20 -2 21 -22
11 -19 -9 -21 -9 -10 2 14 16 16 33 2 24 -6 -3 -13 1 -17 11 -5 14 -8 13 -20
-7 -14 -23 -14 -24 -8 -1 4 13 2 22 -4 22 -6 0 -11 -5 -11 -11 0 -6 -7 -3 -16
5 -18 19 -28 20 -57 4 -19 -10 -21 -9 -9 4 10 13 10 18 1 24 -8 4 -9 3 -5 -4
7 -12 -4 -16 -38 -12 -10 1 -15 -3 -12 -8 4 -6 2 -13 -3 -16 -11 -7 -9 13 2
32 5 6 5 12 0 12 -4 0 -1 5 7 10 11 7 11 10 2 10 -7 0 -11 4 -7 9 6 10 -619
14 -629 4z m605 -23 c6 0 7 5 3 12 -4 7 -3 8 4 4 6 -4 9 -13 5 -22 -4 -11 -9
-12 -19 -3 -8 6 -14 17 -13 23 0 7 2 6 6 -1 2 -7 9 -13 14 -13z m-514 -25 c0
-8 -4 -15 -9 -15 -10 0 -11 14 -1 23 9 10 10 9 10 -8z m479 3 c-1 -7 -5 -18
-9 -25 -4 -7 1 -14 13 -18 11 -3 20 -13 20 -20 0 -9 -9 -6 -26 10 -28 26 -47
25 -37 -2 5 -12 3 -14 -7 -8 -9 6 -11 4 -5 -5 6 -10 11 -9 21 4 11 16 14 15
39 -11 15 -15 25 -23 22 -18 -3 6 -2 17 4 25 7 12 9 11 10 -5 1 -11 1 -22 1
-25 0 -3 10 -5 23 -5 13 0 21 3 19 6 -2 4 3 10 12 13 8 3 13 2 10 -3 -3 -5 4
-11 16 -14 13 -4 26 -1 30 6 5 8 8 7 8 -5 0 -16 20 -23 51 -20 3 1 6 -6 6 -13
0 -11 -4 -12 -13 -4 -8 6 -19 7 -28 2 -13 -7 -12 -11 7 -22 20 -13 21 -13 8 2
-8 10 -9 17 -3 17 6 0 14 -5 17 -11 4 -6 14 -8 22 -4 14 5 14 3 2 -12 -8 -9
-9 -14 -3 -10 16 9 64 16 62 9 -1 -4 3 -17 10 -28 6 -12 8 -25 4 -29 -4 -5 -2
-5 5 -2 6 4 13 2 15 -5 3 -7 7 -5 11 6 4 9 3 15 -3 11 -15 -9 -34 35 -20 49 8
8 9 6 4 -8 -5 -13 -4 -17 4 -12 8 5 10 1 5 -11 -3 -10 -3 -15 2 -11 14 13 37
-13 25 -27 -8 -9 -4 -11 16 -7 21 4 25 2 19 -9 -7 -11 -5 -11 10 1 11 9 16 10
11 3 -9 -16 6 -17 22 -1 8 8 12 9 12 1 0 -6 -5 -13 -12 -15 -15 -5 -19 -34 -4
-36 48 -4 69 -22 59 -51 -5 -13 -3 -14 8 -3 7 6 18 12 23 12 8 0 8 -3 0 -8 -7
-5 -3 -18 13 -41 13 -19 23 -31 23 -27 0 4 5 4 11 0 8 -4 7 -9 -2 -15 -14 -9
-14 -9 24 -13 7 0 12 -16 13 -36 0 -23 5 -35 15 -35 8 -1 13 -7 11 -15 -3 -11
0 -11 13 0 8 7 18 10 22 6 3 -3 2 -6 -4 -6 -21 0 -21 -29 0 -56 12 -16 15 -24
8 -19 -9 5 -12 4 -7 -3 3 -5 0 -13 -6 -15 -9 -4 -9 -6 -1 -6 6 -1 19 6 27 15
21 21 20 5 -1 -18 -16 -18 -16 -18 3 -12 10 4 22 12 27 18 4 6 5 -4 2 -21 -4
-23 -1 -33 7 -33 9 0 8 -3 -2 -10 -8 -5 -10 -10 -4 -10 6 0 11 -6 11 -12 4
-64 8 -78 23 -73 12 5 13 4 3 -6 -18 -18 -16 -34 1 -20 11 9 16 9 22 0 4 -8 3
-9 -4 -5 -7 4 -12 3 -12 -3 0 -5 7 -14 16 -19 11 -6 14 -14 8 -23 -4 -8 -9
-23 -9 -34 0 -11 -4 -26 -8 -33 -5 -7 -4 -18 2 -26 6 -7 9 -15 6 -18 -3 -2 2
-5 10 -5 10 0 12 4 5 12 -5 7 -6 16 -2 20 4 5 1 5 -5 1 -15 -9 -18 10 -3 19 6
4 7 12 3 18 -4 7 0 6 10 -2 18 -15 23 -26 7 -16 -12 7 -14 -8 -2 -19 13 -14 8
-71 -8 -83 -13 -11 -12 -12 5 -13 12 0 16 -3 9 -8 -11 -7 -18 -32 -15 -60 0
-7 5 -11 9 -8 4 2 8 -6 8 -19 0 -13 -4 -21 -8 -19 -5 3 -5 11 -1 17 4 7 0 6
-10 -2 -18 -14 -23 -26 -8 -17 7 5 19 -23 23 -54 1 -3 8 -11 17 -18 9 -8 10
-11 4 -7 -19 9 -39 -5 -22 -16 21 -13 -7 -12 -34 2 -16 8 -14 4 7 -15 16 -14
24 -26 18 -26 -6 0 -9 -8 -6 -17 5 -15 4 -16 -5 -3 -10 14 -16 7 -11 -15 1 -5
-2 -7 -6 -2 -4 4 -9 18 -11 30 -2 16 0 18 6 8 5 -8 11 -9 15 -3 10 16 -21 22
-34 6 -10 -11 -10 -14 0 -14 8 0 10 -3 7 -6 -3 -4 -1 -16 5 -28 10 -19 10 -20
-6 -7 -14 12 -16 12 -11 -1 3 -8 -1 -27 -9 -43 -8 -16 -13 -32 -10 -37 3 -4 2
-14 -3 -20 -11 -18 -13 -39 -3 -33 5 3 12 0 16 -6 4 -8 3 -9 -4 -5 -11 6 -16
-6 -13 -26 0 -5 -5 -7 -12 -5 -6 1 -11 -4 -9 -11 1 -8 -2 -11 -8 -7 -8 5 -6
12 4 24 14 15 13 17 -3 17 -11 0 -17 -6 -14 -13 3 -7 1 -13 -4 -13 -5 0 -10
-7 -10 -15 0 -8 5 -11 10 -8 6 3 7 1 3 -5 -3 -5 0 -13 6 -16 7 -3 3 -3 -9 -1
-24 6 -40 -9 -22 -21 8 -5 9 -3 4 6 -5 9 -4 11 3 6 19 -12 14 -29 -7 -23 -15
3 -18 1 -14 -11 5 -11 3 -13 -7 -7 -8 5 -11 4 -7 -2 7 -11 -20 -28 -37 -24 -5
1 -4 -5 3 -13 14 -17 6 -40 -11 -30 -5 4 -4 -4 3 -17 11 -22 11 -23 -5 -10
-14 12 -16 12 -11 -1 3 -8 -2 -21 -11 -29 -12 -9 -15 -10 -10 -1 4 6 2 12 -3
12 -6 0 -11 -5 -11 -11 0 -6 -7 -9 -15 -5 -12 4 -12 1 2 -22 17 -26 17 -27 -2
-12 -17 14 -18 13 -11 -5 4 -11 4 -16 0 -12 -4 4 -13 -1 -20 -11 -12 -15 -13
-15 -9 7 2 13 1 21 -2 17 -4 -4 -8 -16 -10 -28 -4 -26 -32 -60 -43 -53 -5 3
-10 0 -12 -6 -2 -6 -15 -12 -30 -12 -14 -1 -24 -5 -22 -9 7 -11 -19 -48 -34
-48 -8 0 -12 -6 -9 -13 3 -7 -3 -14 -12 -15 -9 -1 -25 -3 -36 -5 -11 -2 -23 1
-27 7 -5 7 -8 3 -8 -8 0 -20 0 -20 -16 0 -8 10 -13 13 -9 6 3 -6 1 -12 -4 -12
-6 0 -11 -5 -11 -11 0 -5 4 -8 8 -5 4 2 14 0 22 -6 12 -8 11 -9 -4 -4 -14 5
-17 2 -12 -11 6 -14 4 -14 -15 3 l-22 19 13 -25 c7 -14 9 -22 5 -18 -5 4 -15
2 -23 -5 -10 -8 -13 -8 -9 -1 9 15 -16 25 -34 13 -8 -5 -27 -9 -42 -9 -16 0
-26 -4 -22 -9 3 -5 0 -13 -6 -17 -7 -4 -9 -3 -6 3 4 6 0 16 -7 22 -11 9 -16 9
-22 0 -4 -8 -3 -9 4 -5 7 4 12 3 12 -2 0 -6 -7 -12 -15 -16 -9 -3 -15 0 -15 9
0 8 -4 15 -10 15 -5 0 -7 -8 -4 -17 5 -17 5 -17 -9 -1 -13 16 -15 16 -26 -10
-10 -24 -10 -25 3 -8 14 18 15 18 13 -2 -1 -15 -7 -19 -25 -16 -16 3 -21 1
-17 -7 6 -8 2 -8 -13 0 -25 13 -35 14 -27 2 3 -5 0 -13 -6 -17 -8 -4 -9 -3 -5
4 8 13 -6 16 -18 5 -10 -10 -56 -12 -62 -2 -2 4 4 6 15 4 14 -3 18 1 14 12 -3
8 -9 11 -12 6 -3 -4 -14 -9 -25 -11 -12 -2 -16 1 -11 10 7 11 5 11 -6 0 -12
-11 -12 -14 1 -22 8 -5 10 -10 4 -10 -6 0 -17 7 -24 15 -7 8 -16 12 -21 9 -5
-3 -9 0 -9 5 0 6 -5 11 -11 11 -8 0 -8 -5 1 -15 7 -8 16 -12 21 -9 5 3 9 0 9
-5 0 -17 -14 -13 -38 9 -22 21 -22 21 -22 1 0 -11 -4 -22 -9 -25 -4 -3 -7 6
-5 19 1 14 -2 23 -7 19 -5 -3 -6 -10 -3 -16 5 -7 2 -8 -7 -2 -20 12 -40 14
-33 3 3 -5 10 -6 16 -3 7 4 8 2 4 -5 -4 -6 -11 -9 -16 -6 -4 3 -11 -1 -14 -7
-4 -9 -5 -8 -5 2 2 28 -1 43 -7 37 -4 -3 -16 -2 -27 4 -13 7 -17 7 -13 1 10
-17 -11 -23 -24 -7 -7 8 -16 12 -21 9 -5 -3 -9 0 -9 5 0 14 13 14 28 -1 9 -9
12 -8 12 6 0 10 4 14 12 10 7 -4 8 -3 4 5 -4 6 -12 8 -18 5 -6 -4 -26 -8 -44
-9 -25 -1 -31 1 -24 10 6 8 6 12 -3 13 -48 4 -63 7 -70 17 -5 6 -7 1 -4 -12 3
-16 1 -20 -10 -16 -8 3 -12 12 -9 20 3 8 2 12 -3 8 -5 -3 -11 -2 -14 2 -2 5
-2 2 0 -5 1 -7 -1 -10 -6 -7 -5 3 -12 1 -16 -5 -3 -5 -11 -10 -18 -10 -6 0 -2
7 9 15 19 15 19 16 -1 13 -13 -2 -20 4 -22 17 l-3 20 9 -20 c5 -11 10 -14 10
-7 1 7 7 10 14 7 6 -4 4 0 -6 9 -11 8 -26 12 -35 9 -9 -4 -13 -2 -9 4 3 5 0
10 -8 10 -8 0 -12 -3 -10 -7 2 -3 -5 -6 -15 -6 -15 0 -16 3 -8 14 9 10 8 12
-3 10 -8 -2 -13 3 -11 10 1 8 -1 11 -6 8 -5 -3 -18 4 -30 14 -23 22 -37 26
-26 8 4 -7 3 -8 -5 -4 -9 6 -9 11 0 22 9 12 9 13 -3 9 -9 -4 -23 1 -32 10 -9
9 -16 12 -16 6 0 -5 8 -15 18 -20 9 -6 12 -11 7 -11 -17 0 -35 22 -35 42 0 10
-5 18 -11 18 -5 0 -7 6 -3 12 5 8 0 7 -11 -2 -17 -14 -18 -13 -12 9 4 18 3 21
-6 12 -15 -15 -30 -14 -21 1 5 7 2 9 -9 5 -11 -4 -14 -2 -10 9 3 8 -2 23 -11
33 -9 10 -13 21 -9 24 3 4 1 7 -5 7 -15 0 -15 -13 0 -28 7 -7 9 -12 4 -12 -14
0 -33 25 -28 39 3 8 0 11 -6 7 -5 -3 -13 5 -16 19 -4 14 -11 25 -16 25 -6 0
-10 4 -10 10 0 5 8 7 18 4 14 -5 14 -4 2 4 -9 7 -19 7 -25 2 -8 -7 -12 -5 -12
5 0 8 5 15 11 15 6 0 4 4 -4 9 -8 6 -18 7 -22 5 -4 -3 -8 0 -8 6 0 6 -4 9 -9
6 -11 -7 -9 13 2 32 10 16 -5 16 -23 0 -8 -7 -6 -3 4 10 11 12 16 25 13 29 -4
3 -7 1 -7 -5 0 -7 -4 -12 -8 -12 -5 0 -9 7 -9 15 0 8 5 15 11 15 6 0 -1 8 -14
17 -14 10 -28 17 -32 16 -14 -5 -16 28 -2 42 14 13 14 15 0 15 -10 0 -13 6
-10 15 4 8 0 23 -7 32 -8 9 -9 14 -4 11 6 -3 11 5 11 18 2 23 1 24 -12 7 -13
-17 -14 -17 -7 1 4 12 3 17 -4 13 -6 -4 -13 3 -16 14 -4 13 -10 18 -18 13 -7
-4 -10 -3 -5 4 3 6 -3 14 -15 17 -17 6 -19 9 -8 16 20 13 37 11 19 -2 -13 -9
-12 -10 2 -5 10 3 17 2 15 -2 -2 -8 6 -12 25 -12 7 0 2 7 -10 16 -13 9 -21 22
-18 30 3 7 -2 20 -10 29 -9 8 -11 15 -5 15 6 0 11 5 11 11 0 6 -7 8 -18 4 -13
-5 -14 -3 -5 6 8 8 9 19 3 35 -7 16 -6 23 1 21 6 -1 13 6 14 16 2 9 -1 15 -5
12 -5 -3 -12 -1 -15 5 -4 6 -1 9 6 8 13 -3 20 50 7 58 -4 3 -8 10 -8 15 0 6 6
7 13 3 8 -5 8 -2 -2 9 -11 14 -11 17 0 17 11 0 11 2 -1 10 -11 7 -11 10 -2 10
7 0 10 5 7 10 -4 6 -11 8 -16 5 -5 -4 -9 -1 -9 4 0 6 8 11 18 11 13 0 14 2 3
9 -9 6 -10 11 -2 15 6 4 9 11 6 16 -3 5 -1 11 5 15 6 4 8 11 4 16 -3 6 -3 22
0 35 6 23 9 24 24 13 9 -7 14 -9 10 -5 -4 5 -4 14 2 20 5 7 5 17 -2 26 -8 12
-9 12 -4 -2 3 -10 1 -20 -4 -23 -6 -4 -10 4 -10 15 0 13 8 24 20 27 11 3 20
10 20 15 0 5 -4 7 -9 3 -5 -3 -13 -1 -16 5 -4 6 -3 10 2 9 4 -1 16 1 25 5 14
6 15 11 5 21 -7 7 -16 11 -22 8 -5 -2 -3 1 5 9 9 7 15 21 15 31 0 9 14 26 30
37 17 11 24 20 16 20 -8 0 -11 3 -8 7 4 3 2 12 -4 19 -8 9 -6 11 9 8 11 -3 24
2 33 13 13 16 13 17 -3 4 -21 -16 -23 -4 -4 21 7 10 17 14 22 10 5 -4 0 4 -11
18 -16 19 -16 22 -2 11 15 -12 17 -11 17 10 0 19 2 21 9 9 6 -8 7 -18 5 -22
-3 -4 2 -5 11 -1 13 5 14 7 3 14 -10 7 -10 9 2 9 13 0 13 2 1 9 -12 7 -12 13
-3 24 7 7 8 18 4 22 -4 5 -2 5 4 2 6 -4 20 1 30 9 17 14 17 15 2 10 -28 -9
-21 1 13 18 17 9 37 13 43 9 6 -4 4 2 -4 12 -14 17 -13 18 2 12 12 -4 16 -1
13 12 -2 10 3 18 10 18 8 0 11 -5 8 -10 -4 -6 -1 -7 6 -3 7 5 10 15 6 23 -5
14 -3 14 12 2 10 -8 14 -9 10 -2 -11 18 14 54 29 42 8 -7 11 -5 10 7 0 9 5 19
13 22 8 3 11 0 7 -7 -4 -6 -2 -11 3 -11 6 0 11 9 11 20 0 12 7 20 18 20 16 1
16 2 0 13 -15 12 -15 14 3 25 10 7 19 9 18 5 -3 -20 2 -34 11 -28 6 4 7 12 3
18 -4 8 -1 7 9 -1 11 -9 18 -10 23 -2 3 6 11 8 16 5 11 -7 29 36 21 50 -3 6
-2 7 3 3 4 -4 14 -3 21 3 8 7 14 6 20 -2 5 -8 3 -9 -6 -4 -9 5 -11 4 -6 -4 11
-18 25 -3 21 22 -4 21 -4 21 17 -3 l21 -25 -8 23 c-6 22 -5 23 14 13 16 -9 21
-9 21 0 0 8 5 7 17 -2 10 -8 14 -9 10 -2 -4 6 -3 14 3 18 5 3 10 2 10 -2 0 -5
13 -9 30 -9 25 -1 27 0 15 13 -8 8 -15 20 -15 26 0 9 2 9 8 1 4 -6 18 -16 32
-23 24 -11 24 -11 5 4 -17 14 -18 17 -3 31 12 12 17 13 23 3 5 -7 4 -10 -3 -5
-6 3 -13 2 -16 -3 -3 -5 4 -11 15 -14 13 -4 18 -10 13 -18 -4 -7 -3 -10 4 -5
5 3 8 19 6 34 -5 28 -4 29 41 28 25 0 45 -4 45 -8 0 -4 5 -8 11 -8 5 0 7 6 3
13 -5 7 0 6 11 -3 10 -8 16 -10 12 -3 -5 8 1 11 20 9 16 -2 28 -5 28 -6 0 -1
14 -3 32 -4 17 -1 29 2 27 6 -3 4 -1 8 5 8 5 0 13 -5 17 -11 4 -8 9 -8 17 0 8
8 16 6 31 -7 11 -9 16 -12 13 -6 -4 7 0 15 9 18 22 9 32 -3 14 -14 -8 -6 -10
-10 -4 -10 16 0 35 25 26 35 -4 5 -1 5 6 1 7 -4 10 -12 7 -17 -3 -5 2 -6 12
-3 16 5 16 4 -1 -10 -11 -9 -15 -16 -9 -16 7 0 19 8 29 18 10 9 25 17 33 17 9
0 17 6 17 13 2 18 4 22 8 22 2 0 3 -6 2 -12z m-61 -8 c3 -5 1 -10 -4 -10 -6 0
-11 5 -11 10 0 6 2 10 4 10 3 0 8 -4 11 -10z m-453 -14 c7 4 8 2 4 -4 -11 -18
-26 -14 -25 6 0 10 3 12 6 4 2 -6 10 -9 15 -6z m-42 -1 c0 -7 -30 -13 -34 -7
-3 4 4 9 15 9 10 1 19 0 19 -2z m590 1 c0 -3 -4 -8 -10 -11 -5 -3 -10 -1 -10
4 0 6 5 11 10 11 6 0 10 -2 10 -4z m205 -26 c3 -5 1 -10 -4 -10 -6 0 -11 5
-11 10 0 6 2 10 4 10 3 0 8 -4 11 -10z m-955 -20 c0 -5 -4 -10 -10 -10 -5 0
-10 5 -10 10 0 6 5 10 10 10 6 0 10 -4 10 -10z m1083 -54 c3 -8 -1 -22 -9 -33
-14 -17 -15 -17 -5 3 7 15 7 24 -1 32 -8 8 -9 12 -1 12 6 0 13 -6 16 -14z
m-1118 -36 c3 -6 -1 -7 -9 -4 -18 7 -21 14 -7 14 6 0 13 -4 16 -10z m1390
-342 c5 -4 0 -6 -12 -6 -13 1 -19 7 -16 15 3 8 8 10 12 6 3 -4 10 -11 16 -15z
m23 -73 c-3 -3 -9 2 -12 12 -6 14 -5 15 5 6 7 -7 10 -15 7 -18z m-1934 -21 c3
-8 2 -12 -4 -9 -6 3 -10 10 -10 16 0 14 7 11 14 -7z m90 -15 c-3 -5 -10 -7
-15 -3 -5 3 -7 10 -3 15 3 5 10 7 15 3 5 -3 7 -10 3 -15z m1940 -5 c3 -8 2
-12 -4 -9 -6 3 -10 10 -10 16 0 14 7 11 14 -7z m-2060 -179 c-4 -8 -8 -15 -10
-15 -2 0 -4 7 -4 15 0 8 4 15 10 15 5 0 7 -7 4 -15z m26 -5 c-8 -6 -11 -10 -5
-10 5 0 4 -5 -2 -11 -6 -6 -9 -19 -6 -28 7 -17 5 -16 -17 12 -11 15 -11 18 0
15 8 -2 14 2 15 7 1 16 17 37 23 30 4 -3 0 -10 -8 -15z m2080 -30 c0 -5 -2
-10 -4 -10 -3 0 -8 5 -11 10 -3 6 -1 10 4 10 6 0 11 -4 11 -10z m-2 -42 c-2
-7 3 -12 10 -10 8 1 11 -2 7 -7 -6 -11 -35 -4 -35 8 0 8 11 21 17 21 2 0 2 -6
1 -12z m-2078 -2 c0 -2 -7 -7 -16 -10 -8 -3 -12 -2 -9 4 6 10 25 14 25 6z
m2150 -50 c0 -3 -4 -8 -10 -11 -5 -3 -10 -1 -10 4 0 6 5 11 10 11 6 0 10 -2
10 -4z m-2155 -315 c3 -5 2 -12 -3 -15 -5 -3 -9 1 -9 9 0 17 3 19 12 6z m2085
-101 c-12 -23 -16 -24 -26 -8 -4 6 -3 8 3 5 6 -4 13 0 17 8 3 8 8 15 11 15 3
0 1 -9 -5 -20z m-2097 -15 c-3 -9 -8 -14 -10 -11 -3 3 -2 9 2 15 9 16 15 13 8
-4z m108 -162 c12 -15 12 -16 -5 -10 -14 5 -17 3 -13 -8 4 -8 2 -17 -2 -19 -5
-3 -7 5 -6 17 5 44 6 45 26 20z m-51 -52 c0 -23 -23 4 -27 31 -4 22 -3 22 11
3 9 -11 16 -27 16 -34z m1967 -46 c0 -8 -4 -12 -9 -9 -5 3 -6 10 -3 15 9 13
12 11 12 -6z m-77 -9 c0 -2 -7 -7 -16 -10 -8 -3 -12 -2 -9 4 6 10 25 14 25 6z
m-1775 -16 c-3 -5 -12 -10 -18 -10 -7 0 -6 4 3 10 19 12 23 12 15 0z m-60 -22
c5 4 5 1 1 -6 -6 -10 -11 -10 -22 -1 -8 6 -14 17 -14 23 0 6 7 3 14 -6 7 -10
17 -14 21 -10z m1790 -6 c-3 -3 -11 0 -18 7 -9 10 -8 11 6 5 10 -3 15 -9 12
-12z m-1730 -90 c-3 -3 -11 0 -18 7 -9 10 -8 11 6 5 10 -3 15 -9 12 -12z m43
-17 c-3 -3 -9 2 -12 12 -6 14 -5 15 5 6 7 -7 10 -15 7 -18z m52 -95 c0 -5 -2
-10 -4 -10 -3 0 -8 5 -11 10 -3 6 -1 10 4 10 6 0 11 -4 11 -10z m221 -102
c-10 -11 -11 -9 -5 6 5 12 4 17 -3 13 -5 -3 -10 1 -10 9 0 13 2 13 16 0 12
-13 13 -18 2 -28z m1145 -3 c-1 -8 -5 -17 -8 -21 -5 -4 -4 16 1 34 3 9 9 -1 7
-13z m34 -33 c0 -5 -7 -9 -15 -9 -8 0 -15 4 -15 9 0 4 7 8 15 8 8 0 15 -4 15
-8z m-250 -32 c0 -5 -5 -10 -11 -10 -5 0 -7 5 -4 10 3 6 8 10 11 10 2 0 4 -4
4 -10z m-780 -4 c0 -3 -4 -8 -10 -11 -5 -3 -10 -1 -10 4 0 6 5 11 10 11 6 0
10 -2 10 -4z m860 -6 c0 -5 -4 -10 -10 -10 -5 0 -10 5 -10 10 0 6 5 10 10 10
6 0 10 -4 10 -10z m-890 -24 c0 -2 -7 -7 -16 -10 -8 -3 -12 -2 -9 4 6 10 25
14 25 6z m259 -39 c0 -9 -2 -8 -6 1 -2 6 -10 9 -15 6 -7 -4 -8 -2 -4 5 9 13
26 5 25 -12z m-84 -17 c-3 -5 -12 -10 -18 -10 -7 0 -6 4 3 10 19 12 23 12 15
0z m91 -22 c3 -4 -1 -5 -10 -4 -8 1 -18 5 -22 8 -3 4 1 5 10 4 8 -1 18 -5 22
-8z m1336 -342 c7 4 8 2 4 -5 -9 -13 -26 -5 -25 12 0 9 2 8 6 -1 2 -6 10 -9
15 -6z"/>
<path d="M921 2503 c15 -17 21 -16 45 3 18 15 18 15 -3 5 -26 -13 -36 -14 -29
-3 3 5 -1 9 -9 9 -11 0 -12 -4 -4 -14z"/>
<path d="M646 2411 c-3 -5 1 -11 9 -14 9 -4 12 -1 8 9 -6 16 -10 17 -17 5z"/>
<path d="M1716 2177 c3 -10 9 -15 12 -12 3 3 0 11 -7 18 -10 9 -11 8 -5 -6z"/>
<path d="M1630 2160 c-7 -9 -8 -10 -4 -1 4 9 2 12 -7 9 -8 -3 -13 -10 -12 -16
1 -5 -5 -16 -14 -24 -12 -9 -15 -9 -9 0 4 6 2 12 -3 12 -6 0 -11 -9 -11 -20 0
-11 -5 -20 -11 -20 -5 0 -8 4 -5 8 3 5 -1 9 -9 9 -8 0 -13 -5 -12 -10 1 -5 -4
-12 -10 -14 -8 -3 -13 3 -14 14 0 15 -2 14 -9 -4 -5 -13 -15 -23 -22 -23 -9 0
-9 3 2 10 19 12 4 13 -38 1 -18 -6 -30 -6 -28 -2 3 4 1 13 -5 21 -7 12 -9 11
-9 -5 0 -16 -2 -17 -9 -5 -6 8 -8 17 -5 21 2 4 0 10 -5 13 -5 4 -8 -5 -6 -19
1 -14 -2 -28 -8 -32 -6 -3 -7 -2 -4 4 3 5 -2 16 -12 25 -10 9 -20 21 -23 28
-3 10 -9 10 -28 0 -22 -12 -24 -11 -13 2 13 15 8 28 -11 28 -6 0 -4 -5 4 -11
11 -7 6 -9 -20 -7 -22 2 -35 -1 -36 -9 -1 -7 -2 -18 -3 -24 0 -6 -7 -9 -15 -6
-8 3 -17 -1 -20 -9 -3 -9 -11 -12 -17 -8 -7 4 -9 3 -5 -4 3 -6 -2 -12 -11 -14
-15 -3 -14 -5 5 -10 12 -3 20 -2 17 2 -3 4 5 6 17 2 21 -5 21 -6 2 -12 -10 -4
-22 -6 -26 -3 -5 2 -8 -3 -8 -12 0 -9 -4 -13 -10 -10 -6 3 -7 -1 -4 -9 3 -9
11 -16 16 -16 6 0 0 -9 -13 -20 -13 -11 -18 -19 -10 -18 7 2 16 -3 18 -10 3
-8 -2 -10 -14 -6 -10 3 -7 -1 7 -11 22 -13 22 -15 5 -14 -11 1 -27 1 -35 0
-13 -1 -13 -3 0 -10 8 -6 18 -7 24 -4 5 4 6 1 2 -6 -5 -7 -13 -10 -20 -8 -7 3
-13 -4 -13 -15 -2 -16 1 -17 13 -8 10 9 14 9 14 1 0 -11 -9 -14 -41 -14 -20 0
-19 -24 2 -39 11 -8 10 -8 -5 -4 -19 7 -36 -8 -36 -31 0 -8 7 -10 18 -6 16 7
16 6 -1 -11 -9 -10 -15 -22 -12 -27 10 -15 -2 -10 -16 8 -9 11 -10 14 -2 9 9
-5 11 -2 6 10 -6 15 -7 15 -15 -1 -13 -22 19 -60 37 -45 8 7 12 6 12 -3 0 -18
-29 -17 -43 1 -9 13 -12 13 -20 1 -5 -8 -9 -20 -9 -28 0 -7 -10 -17 -23 -22
-15 -6 -21 -5 -17 1 3 6 12 10 20 10 8 0 13 9 12 20 -1 11 -6 20 -12 20 -5 0
-4 4 4 9 19 12 22 38 5 38 -10 0 -11 -4 -3 -14 9 -10 8 -13 -4 -13 -9 0 -18 8
-21 18 -3 9 -4 2 -2 -16 1 -18 -1 -35 -6 -38 -13 -8 -40 17 -34 32 3 7 0 16
-6 20 -7 4 -8 3 -4 -4 4 -7 1 -12 -8 -12 -9 0 -16 -5 -16 -11 0 -5 5 -7 12 -3
7 5 8 3 3 -6 -6 -10 -10 -10 -20 3 -11 15 -13 15 -29 -1 -10 -9 -16 -12 -15
-7 5 29 -1 36 -17 20 -13 -13 -19 -13 -32 -3 -13 11 -14 11 -8 0 6 -9 1 -11
-18 -8 -14 3 -28 0 -32 -5 -3 -5 -10 -6 -16 -3 -7 4 -8 2 -4 -5 11 -17 -12
-41 -32 -34 -15 4 -15 3 -2 -6 11 -8 12 -11 2 -11 -7 0 -10 -4 -7 -10 3 -5 4
-10 0 -10 -3 0 -10 10 -15 23 -5 13 -9 16 -9 7 -1 -8 -10 -21 -21 -28 -17 -10
-21 -10 -27 4 -5 13 -7 13 -14 2 -7 -10 -9 -10 -10 2 0 10 -3 8 -9 -5 l-9 -20
0 20 c-1 17 -3 17 -11 5 -8 -12 -10 -12 -11 5 l0 20 -9 -20 c-5 -11 -9 -14 -9
-7 -1 10 -14 13 -46 11 -24 -2 -48 1 -52 6 -5 4 -2 5 6 0 9 -5 12 -4 7 3 -10
17 -15 15 -26 -10 -7 -18 -9 -19 -9 -5 -1 19 -16 23 -27 5 -5 -7 -3 -8 6 -3 9
5 11 4 6 -4 -6 -9 -11 -9 -22 0 -8 6 -17 9 -21 5 -3 -3 -1 -6 5 -6 7 0 12 -5
12 -10 0 -7 -7 -7 -21 1 -13 7 -19 7 -15 1 4 -6 -2 -15 -11 -21 -10 -6 -13
-11 -8 -11 6 0 17 6 24 13 11 10 12 9 6 -1 -4 -7 -18 -17 -31 -22 -17 -7 -22
-14 -17 -26 4 -11 2 -15 -4 -11 -7 5 -9 -1 -5 -15 4 -16 2 -19 -9 -13 -11 7
-11 5 1 -10 8 -10 11 -16 5 -13 -5 3 -16 -1 -24 -9 -12 -13 -11 -14 8 -8 20 6
21 5 9 -14 -7 -12 -17 -21 -23 -21 -5 0 -2 -5 8 -11 14 -8 15 -14 7 -24 -8
-10 -8 -15 1 -21 8 -5 9 -3 4 6 -6 9 -4 11 4 6 7 -5 10 -14 7 -21 -2 -7 4 -15
15 -18 16 -4 18 -9 9 -31 -5 -14 -6 -25 -2 -25 22 4 41 -3 46 -17 3 -8 2 -12
-3 -9 -5 3 -12 1 -16 -5 -3 -5 1 -10 9 -10 10 0 13 -6 9 -17 -5 -12 -3 -14 8
-8 11 6 12 5 2 -6 -7 -7 -13 -19 -13 -27 0 -8 5 -10 13 -6 9 6 9 4 -1 -8 -9
-11 -10 -18 -2 -23 5 -3 10 -12 10 -18 0 -7 -4 -6 -10 3 -15 24 -6 -30 10 -60
17 -33 30 -41 51 -29 29 15 33 10 9 -9 -20 -16 -21 -21 -9 -40 8 -12 17 -22
22 -22 4 0 5 6 1 13 -5 8 -2 7 10 -2 9 -8 15 -19 12 -26 -2 -6 5 -17 15 -24
11 -6 17 -16 14 -22 -4 -5 -3 -9 2 -8 4 1 15 1 23 0 12 -1 12 -3 2 -10 -11 -7
-10 -9 3 -14 9 -4 14 -3 10 3 -7 12 31 8 42 -5 5 -4 3 -5 -3 -2 -7 4 -14 0
-17 -8 -5 -11 -1 -12 17 -5 16 6 23 5 23 -5 0 -7 -5 -12 -11 -11 -6 2 -8 1 -3
-1 4 -3 7 -12 7 -21 1 -12 5 -10 16 8 8 14 13 17 10 8 -2 -9 1 -19 9 -21 20
-8 27 4 13 22 -7 9 -1 6 13 -7 17 -14 33 -20 45 -16 16 5 16 4 4 -5 -12 -9
-11 -11 8 -11 26 0 30 -20 5 -21 -12 0 -13 -2 -5 -6 7 -3 20 1 28 8 8 7 14 8
13 3 -3 -14 12 -44 23 -44 5 0 6 6 2 13 -4 6 2 3 14 -7 23 -20 30 -10 10 14
-7 8 -2 5 12 -6 14 -12 31 -19 39 -16 8 2 11 0 8 -5 -3 -5 0 -10 7 -10 8 0 12
6 9 13 -3 9 2 11 17 7 17 -4 19 -8 8 -15 -8 -5 -4 -7 14 -4 18 3 28 0 31 -10
3 -8 4 -7 3 3 -1 10 -7 17 -12 16 -6 -1 -11 4 -11 11 0 9 6 10 23 2 12 -6 20
-15 17 -21 -4 -5 -2 -7 2 -2 5 4 18 -1 29 -10 12 -10 15 -11 9 -3 -18 19 -16
35 1 21 11 -9 20 -9 34 -2 11 6 22 8 24 5 6 -5 22 46 19 59 -1 5 3 6 8 2 6 -3
8 -12 5 -19 -3 -8 9 -24 27 -37 28 -20 32 -21 26 -5 -6 15 -5 17 7 7 11 -9 13
-7 14 14 0 26 -12 33 -22 13 -3 -7 -3 -3 -1 8 4 13 0 24 -8 27 -11 4 -13 -2
-11 -24 2 -19 0 -28 -7 -23 -6 3 -8 12 -5 20 3 8 1 14 -4 14 -5 0 -8 6 -6 13
1 6 1 9 -1 4 -3 -4 -9 -4 -15 -1 -5 3 -12 -3 -15 -15 -3 -12 -9 -21 -14 -21
-5 0 -6 6 -3 14 3 7 -2 16 -12 20 -11 4 -15 2 -11 -8 3 -8 -1 -20 -9 -27 -8
-7 -12 -19 -9 -27 4 -12 2 -12 -8 -4 -8 7 -17 9 -20 5 -4 -3 -7 -1 -7 5 0 7 5
12 11 12 6 0 17 7 25 15 9 8 11 15 5 15 -6 0 -10 5 -8 12 1 7 -6 12 -15 13
-10 0 -17 -4 -16 -10 2 -5 6 -9 10 -8 5 2 8 -2 8 -7 0 -13 -11 -12 -32 4 -10
7 -14 17 -10 22 4 4 0 3 -10 -4 -13 -10 -17 -10 -20 0 -4 10 -10 10 -29 1 -21
-9 -28 -8 -38 6 -10 14 -11 14 -7 0 2 -9 -2 -16 -10 -16 -7 0 -11 4 -9 8 6 9
-24 21 -36 13 -5 -3 -6 -11 -3 -17 5 -9 4 -9 -6 0 -9 8 -19 9 -30 3 -13 -7
-22 -5 -31 7 -8 10 -9 14 -2 10 6 -4 14 -3 18 3 6 9 -7 14 -27 11 -5 0 -8 4
-8 9 0 13 3 13 35 -2 18 -8 22 -14 13 -19 -9 -6 -6 -8 8 -7 13 1 20 9 21 22 1
12 -1 16 -4 9 -2 -7 -11 -9 -19 -6 -7 3 -12 9 -9 13 3 5 0 12 -6 16 -8 4 -9 3
-5 -4 4 -7 3 -12 -1 -12 -5 0 -14 9 -20 19 -13 21 -49 24 -72 7 -11 -8 -13 -8
-7 2 5 8 1 21 -10 33 -14 15 -20 17 -33 7 -9 -7 -13 -9 -9 -4 8 10 -9 29 -35
39 -10 4 -15 12 -11 18 4 7 -1 7 -16 -1 -12 -7 -20 -8 -16 -2 3 5 -1 15 -9 22
-14 11 -14 15 0 36 11 18 12 22 2 18 -8 -3 -20 2 -27 11 -10 12 -10 15 0 15 8
0 11 3 7 6 -3 3 -11 3 -17 -1 -8 -5 -6 -12 5 -25 12 -14 13 -20 4 -26 -8 -5
-10 -3 -5 5 5 8 1 14 -12 18 -14 3 -18 11 -14 25 3 14 1 19 -6 14 -7 -4 -12
-2 -12 3 0 6 5 11 12 11 6 0 4 6 -7 13 -12 9 -14 16 -7 21 6 4 8 14 5 23 -4 9
-2 14 3 10 5 -3 10 3 10 13 0 10 -4 16 -8 14 -12 -7 -5 40 7 48 6 5 5 8 -4 8
-11 0 -11 3 0 17 8 9 9 14 2 10 -13 -8 -12 18 2 30 4 4 5 2 0 -6 -6 -10 -4
-12 4 -7 9 6 9 11 -1 24 -11 13 -11 14 0 8 10 -6 13 -2 10 14 -2 18 2 24 19
25 13 1 26 5 30 10 5 4 1 6 -8 3 -9 -4 -16 -1 -16 7 0 8 8 12 20 10 15 -3 16
-1 7 10 -8 10 -8 15 1 21 8 5 10 3 4 -7 -7 -12 -5 -12 6 -1 11 11 12 14 1 21
-10 6 -8 10 7 14 12 3 19 2 16 -3 -3 -4 1 -10 9 -13 8 -3 13 1 12 11 -1 11 6
16 17 15 10 0 16 2 12 5 -3 3 4 11 16 18 14 7 18 14 10 18 -6 4 -11 2 -11 -3
0 -6 -5 -11 -10 -11 -6 0 -5 8 2 20 7 11 16 20 21 20 4 0 5 -5 1 -11 -4 -7 -1
-10 7 -7 8 3 13 11 11 17 -1 7 2 10 8 6 6 -3 8 -10 5 -15 -7 -12 25 -6 33 7 4
5 15 9 25 7 10 -1 16 3 14 9 -2 7 -13 11 -23 9 -18 -2 -18 -2 -1 8 11 7 16 18
12 29 -3 9 1 25 8 35 11 16 17 17 33 7 18 -11 17 -12 -3 -6 -21 6 -33 -8 -15
-18 4 -2 1 -2 -5 -1 -17 4 -16 -11 2 -29 8 -8 12 -17 10 -19 -3 -3 2 -5 10 -5
13 0 13 3 -2 19 -15 17 -15 18 0 18 10 0 17 -5 17 -11 0 -8 4 -8 15 1 8 6 20
8 26 4 7 -4 9 -3 6 3 -4 6 0 14 9 17 8 3 12 2 9 -4 -9 -14 8 -12 24 3 12 10
13 8 7 -8 -6 -20 -6 -20 9 -1 11 14 15 16 15 5 0 -12 2 -12 9 0 5 8 18 12 30
8 12 -3 21 0 21 5 0 7 4 7 13 0 7 -5 21 -6 32 -1 30 12 35 11 28 -8 -7 -19 -5
-18 17 11 8 11 10 17 5 14 -6 -4 -12 3 -12 14 -2 18 0 18 10 5 12 -16 40 -18
53 -4 4 3 16 1 27 -5 17 -9 19 -8 14 6 -4 11 -3 15 4 11 6 -4 8 -13 5 -21 -6
-14 18 -9 43 10 11 8 13 8 7 -1 -4 -8 -2 -13 4 -13 6 0 8 -4 5 -10 -3 -5 -1
-10 4 -10 6 0 11 4 11 10 0 5 7 7 15 4 8 -4 15 -10 15 -16 0 -5 -4 -6 -10 -3
-5 3 -10 1 -10 -4 0 -12 35 -9 47 4 5 4 3 5 -3 2 -6 -3 -11 0 -11 7 0 7 6 13
13 13 7 0 13 -3 12 -6 -3 -28 3 -33 17 -15 11 14 14 15 9 3 -6 -20 11 -34 22
-18 5 8 3 9 -7 4 -12 -7 -12 -6 0 6 11 11 14 11 18 1 4 -10 8 -10 21 0 14 11
15 10 8 -7 -4 -11 -4 -16 0 -12 4 4 14 1 23 -6 14 -10 14 -10 3 5 -8 9 -9 19
-4 22 6 3 13 -1 16 -9 9 -24 46 -1 41 26 -4 17 -2 19 10 9 8 -7 15 -9 15 -4 0
4 7 -1 16 -12 8 -10 13 -13 9 -7 -4 8 -1 11 9 7 12 -5 9 -12 -15 -35 -16 -16
-25 -29 -19 -29 6 0 9 -4 5 -9 -6 -11 28 -7 47 5 7 4 8 3 4 -4 -5 -8 0 -12 13
-12 12 0 21 -4 21 -10 0 -5 7 -7 15 -4 8 4 12 11 8 18 -3 6 -2 8 2 3 5 -4 10
-18 12 -30 2 -17 1 -19 -7 -7 -5 8 -10 11 -10 5 1 -31 70 -72 70 -42 0 6 3 7
6 4 4 -4 1 -14 -7 -24 -9 -11 -10 -14 -1 -9 8 5 12 1 12 -10 0 -15 2 -16 13
-3 6 8 11 12 10 10 -1 -2 4 -13 12 -23 7 -11 11 -27 8 -34 -3 -8 0 -14 7 -14
6 0 9 4 5 9 -3 5 -1 12 4 15 6 4 8 -7 6 -25 -3 -22 -1 -29 8 -26 8 3 12 -4 11
-22 -1 -17 7 -34 25 -49 14 -12 19 -20 10 -17 -10 4 -16 0 -16 -9 0 -8 4 -13
9 -10 4 3 6 -5 5 -18 -2 -13 -9 -23 -15 -23 -6 0 -13 -3 -16 -8 -3 -4 -3 -5 1
-2 3 3 15 -3 26 -12 11 -10 17 -12 13 -5 -4 7 -2 12 6 12 11 0 10 2 0 9 -10 6
-9 10 8 14 l21 5 -20 -34 c-18 -30 -16 -46 3 -27 4 4 15 8 24 8 20 0 25 51 8
75 -8 13 -8 13 4 2 17 -14 22 -95 7 -85 -6 4 -7 1 -2 -7 6 -9 4 -11 -5 -5 -9
6 -11 4 -6 -6 4 -8 1 -6 -7 3 -9 12 -17 14 -24 7 -13 -13 -45 0 -36 15 3 6 -3
3 -14 -7 -11 -9 -23 -14 -28 -10 -4 5 -5 3 -1 -4 3 -6 15 -10 26 -8 12 2 18 0
15 -6 -4 -5 -12 -9 -20 -9 -8 0 -17 -5 -21 -12 -4 -6 -3 -8 3 -5 6 4 14 -1 17
-10 4 -10 4 -15 1 -11 -8 7 -49 -31 -51 -48 -1 -6 6 -10 16 -7 10 3 20 1 23
-4 3 -5 -11 -8 -31 -7 -44 2 -67 -13 -52 -31 8 -9 6 -14 -5 -19 -11 -4 -14 -2
-9 6 5 7 -7 3 -26 -9 -35 -22 -51 -56 -22 -46 15 4 15 3 2 -6 -12 -9 -13 -11
-1 -11 8 0 11 -3 8 -7 -4 -3 -17 2 -29 13 -12 10 -18 14 -15 8 9 -15 -20 -27
-29 -12 -5 7 -2 8 6 3 9 -5 11 -4 6 4 -6 9 -11 9 -22 0 -17 -14 -19 -23 -2
-13 7 5 8 3 3 -6 -6 -10 -11 -9 -22 5 -12 18 -13 17 -14 -6 -1 -13 -1 -27 -1
-31 1 -3 -5 -9 -14 -12 -11 -4 -12 -2 -5 13 7 13 6 18 -3 18 -9 0 -13 -11 -12
-28 2 -25 0 -27 -18 -16 -27 15 -48 18 -40 6 3 -5 10 -7 15 -4 5 3 6 -1 3 -10
-4 -10 -10 -12 -18 -6 -6 5 -24 12 -40 15 -23 4 -27 2 -21 -11 5 -14 2 -13
-16 3 -12 10 -19 13 -15 6 5 -9 3 -13 -5 -11 -26 3 -40 -1 -34 -10 3 -5 0 -13
-6 -17 -8 -4 -9 -3 -5 4 7 12 5 13 -56 16 -31 2 -35 -1 -28 -14 14 -25 37 -42
44 -32 3 6 -1 12 -9 16 -17 6 -20 26 -4 26 5 0 8 -4 5 -9 -3 -5 1 -12 10 -15
13 -5 14 -9 4 -21 -8 -10 -9 -15 -2 -15 6 0 15 8 21 18 9 15 10 14 8 -5 0 -12
-3 -20 -5 -18 -3 2 -14 -1 -26 -7 -11 -6 -18 -7 -14 -3 9 10 -10 35 -25 35 -7
0 -7 -4 1 -12 13 -13 16 -29 5 -27 -21 3 -31 -3 -36 -20 -3 -14 -1 -18 9 -14
8 3 12 9 9 13 -3 5 -1 11 5 15 5 3 10 -2 11 -12 0 -17 1 -17 8 0 8 22 21 24
32 5 7 -10 9 -9 9 4 0 10 7 15 18 13 9 -1 22 1 28 6 6 5 23 10 38 11 14 1 26
7 26 13 1 5 7 -1 15 -15 10 -18 14 -20 15 -8 0 9 5 20 12 24 6 4 8 3 5 -3 -4
-6 2 -13 14 -16 17 -5 18 -3 7 10 -12 14 -11 15 9 5 27 -15 33 -15 33 -1 0 5
-4 8 -9 4 -5 -3 -12 -1 -15 4 -3 5 10 7 29 4 37 -5 43 3 23 27 -7 8 -4 7 7 -2
20 -16 21 -16 22 3 1 12 -3 17 -9 13 -7 -5 -8 -2 -3 5 5 9 10 10 18 2 15 -15
30 -14 21 2 -4 6 -4 9 1 5 4 -4 15 -2 24 5 14 11 14 10 2 -6 -16 -21 -3 -22
23 -2 10 8 24 12 30 9 6 -3 2 2 -9 11 -20 17 -20 17 2 11 12 -4 24 -2 28 4 3
6 11 8 16 5 5 -3 6 1 3 10 -6 14 -7 14 -18 0 -10 -14 -12 -14 -12 4 0 11 2 18
5 16 2 -3 10 0 17 6 8 7 14 6 20 -2 5 -8 3 -10 -7 -4 -8 5 -10 4 -6 0 4 -5 14
-10 23 -11 12 -2 13 0 3 12 -9 11 -9 17 -1 25 7 5 10 6 8 3 -3 -3 0 -12 7 -19
9 -9 16 -7 32 14 11 14 19 31 17 38 -2 7 2 13 8 13 6 0 8 5 5 10 -4 6 -11 7
-17 4 -7 -4 -8 -2 -4 4 9 15 12 15 29 -3 13 -13 16 -13 21 1 3 8 2 13 -3 10
-5 -3 -11 0 -14 7 -4 10 2 13 20 9 19 -4 24 -1 21 9 -3 8 -11 13 -18 11 -10
-2 -11 0 -2 11 7 8 8 18 4 22 -4 5 -1 5 6 1 15 -9 16 16 2 30 -7 7 -6 11 4 11
8 0 13 -4 10 -9 -3 -4 0 -8 6 -8 6 0 8 -6 4 -12 -4 -8 -3 -10 2 -5 5 5 9 14 9
20 1 7 7 11 14 9 7 -1 9 2 6 8 -4 6 1 20 11 31 9 10 14 19 9 19 -4 0 -3 6 3
13 7 8 7 18 2 27 -6 9 -5 17 3 22 9 6 9 8 -1 8 -8 0 -10 5 -5 13 11 18 13 38
2 31 -5 -3 -6 -10 -3 -16 4 -7 2 -8 -4 -4 -9 5 -9 12 0 26 7 10 15 17 19 14 4
-2 10 3 13 12 4 10 2 13 -7 9 -6 -4 -4 0 7 9 10 8 15 19 11 25 -3 7 0 8 9 5 9
-3 13 -10 10 -15 -3 -5 2 -6 12 -2 15 5 15 7 -1 16 -17 9 -16 11 6 24 l24 14
-24 -5 c-18 -4 -21 -2 -12 7 6 6 11 19 11 30 0 11 5 16 13 12 6 -4 3 1 -7 9
-20 16 -20 16 0 16 14 0 16 2 6 9 -8 4 -13 11 -13 15 4 25 0 36 -11 30 -7 -5
-8 -3 -4 5 9 15 -21 51 -42 51 -11 0 -12 3 -3 14 9 11 6 17 -15 31 -23 15 -26
15 -21 2 4 -11 2 -14 -8 -10 -8 3 -12 9 -9 14 3 5 2 9 -3 10 -4 0 -16 2 -26 4
-9 2 -15 0 -13 -4 7 -10 -61 -7 -71 3 -5 5 -2 6 6 1 10 -6 12 -4 7 4 -6 9 -11
9 -22 0 -17 -14 -18 -23 -1 -13 6 4 9 3 4 -1 -9 -10 -47 -14 -47 -5 0 3 -13 6
-30 6 -32 0 -37 -5 -19 -23 8 -8 7 -13 -2 -18 -7 -5 -10 -4 -6 2 3 5 -2 16
-12 24 -17 13 -25 17 -63 24 -9 2 -25 8 -36 14 -11 6 -22 7 -26 4 -5 -6 -10
10 -8 28 1 3 -9 5 -21 5 -12 -1 -31 5 -41 13 -11 9 -16 10 -12 4 4 -7 2 -13
-3 -13 -6 0 -11 5 -11 11 0 5 -5 7 -10 4 -6 -4 -8 -11 -5 -16 3 -5 -1 -6 -9
-3 -9 3 -14 9 -13 12 1 4 -2 7 -8 7 -5 0 -9 -3 -7 -7 1 -5 -2 -8 -8 -8 -5 0
-10 5 -10 10 0 6 -5 10 -11 10 -5 0 -8 -3 -6 -7 3 -5 -10 -9 -29 -9 -19 -1
-34 3 -34 7 0 5 -7 9 -16 9 -13 0 -14 -3 -4 -15 6 -8 10 -20 7 -27 -3 -8 -6
-6 -6 5 -1 15 -4 16 -22 6 -24 -12 -50 3 -28 16 8 6 10 4 4 -5 -6 -10 -4 -12
9 -7 10 4 20 7 23 7 3 0 0 6 -6 14 -10 11 -7 17 11 30 12 9 17 16 11 16 -7 0
-15 -4 -18 -10 -3 -5 -11 -10 -17 -10 -6 0 -5 7 3 17 10 11 10 14 2 9 -8 -4
-13 -2 -13 4 0 6 -5 8 -12 4 -7 -4 -8 -3 -4 5 4 6 12 9 17 6 5 -4 10 -1 10 4
1 6 2 16 3 21 0 6 7 14 14 19 11 7 10 9 -3 14 -10 5 -14 3 -9 -5 5 -7 3 -8 -6
-3 -9 6 -11 4 -5 -5 6 -9 4 -11 -6 -5 -12 8 -12 6 0 -8 7 -9 9 -17 3 -17 -5 0
-12 7 -16 15 -6 17 40 69 49 54 4 -5 1 -9 -6 -9 -7 0 -10 -3 -6 -6 3 -3 14 -1
24 5 10 6 12 11 6 11 -7 0 -13 5 -13 10 0 6 3 9 8 9 19 -3 22 2 8 17 -12 11
-13 20 -6 33 5 10 6 22 2 26 -4 5 -2 5 4 2 12 -7 25 14 29 45 2 22 15 37 15
18 0 -10 3 -10 14 -1 10 8 16 9 21 1 8 -13 -20 -24 -37 -14 -11 6 -11 4 0 -7
16 -17 48 0 46 25 -1 9 2 13 7 10 11 -6 8 -36 -5 -45 -4 -4 -3 -10 3 -13 6 -4
11 -3 11 3 0 5 9 8 20 6 11 -2 23 1 26 7 5 7 2 8 -6 3 -9 -6 -11 -4 -5 5 6 10
11 9 21 -5 7 -10 11 -22 7 -28 -3 -6 -1 -7 6 -3 6 4 8 13 4 19 -4 8 -1 7 9 -1
13 -10 18 -10 24 -1 5 8 3 9 -6 4 -9 -5 -11 -4 -6 4 6 9 11 9 22 0 7 -6 11
-16 7 -22 -3 -6 -1 -7 6 -3 6 4 9 11 6 16 -3 5 -1 12 5 15 6 4 9 1 8 -6 -2 -7
2 -13 9 -14 14 0 41 -25 28 -25 -5 0 2 -12 16 -27 13 -14 18 -23 12 -19 -7 4
-13 2 -13 -4 0 -6 -4 -8 -10 -5 -16 10 -11 -1 7 -16 11 -10 14 -10 9 -1 -4 6
-2 12 3 12 6 0 11 -5 11 -11 0 -5 4 -7 10 -4 6 3 7 -1 4 -10 -5 -12 -2 -14 12
-8 17 6 18 5 4 -12 -8 -10 -10 -16 -3 -12 6 4 14 1 16 -5 4 -10 6 -10 6 0 1
10 6 10 21 2 11 -6 17 -16 14 -22 -5 -7 -2 -8 5 -4 7 5 10 14 7 22 -3 8 0 11
10 7 9 -3 13 -12 9 -21 -3 -9 -3 -13 1 -9 4 4 14 1 22 -6 13 -10 14 -9 8 1 -5
9 -3 12 5 11 25 -5 59 12 60 29 0 11 3 12 6 5 2 -7 9 -13 15 -13 6 0 8 7 5 14
-4 10 -1 13 8 10 11 -5 13 2 10 25 -2 21 0 29 7 25 8 -5 9 -1 5 10 -4 10 -1
19 8 22 8 4 15 10 15 16 0 5 -5 6 -12 2 -7 -4 -8 -3 -4 4 4 7 1 12 -6 12 -9 0
-9 3 2 10 8 5 11 10 7 10 -4 0 -3 9 3 20 8 15 8 18 -3 14 -10 -4 -14 2 -12 19
2 17 -2 24 -12 23 -9 0 -18 6 -20 14 -4 13 -3 13 7 0 10 -13 11 -13 7 0 -2 8
-12 14 -21 13 -11 0 -15 4 -12 12 3 9 0 12 -10 8 -10 -4 -13 0 -8 13 5 18 5
18 -6 1 -10 -15 -14 -16 -27 -5 -22 18 -69 16 -83 -2z m-281 -80 c0 -8 -8 1
-19 20 -11 19 -19 29 -20 23 0 -7 -5 -13 -11 -13 -8 0 -7 5 2 16 11 14 15 13
31 -8 9 -13 17 -30 17 -38z m-125 8 c-2 -3 -13 -6 -24 -5 -24 2 -18 13 9 13
11 0 18 -4 15 -8z m30 -13 c-4 -8 -11 -15 -16 -15 -6 0 -5 6 2 15 7 8 14 15
16 15 2 0 1 -7 -2 -15z m93 -37 c-3 -8 -6 -5 -6 6 -1 11 2 17 5 13 3 -3 4 -12
1 -19z m-108 -2 c9 -11 9 -16 -1 -22 -7 -4 -10 -4 -6 1 4 4 3 14 -3 22 -6 7
-9 13 -6 13 2 0 10 -6 16 -14z m-69 -141 c-7 -9 -15 -13 -19 -10 -3 3 1 10 9
15 21 14 24 12 10 -5z m564 -29 c-10 -8 -21 -12 -24 -10 -5 6 21 24 34 24 6 0
1 -6 -10 -14z m-590 -24 c3 -5 -1 -9 -9 -9 -8 0 -12 4 -9 9 3 4 7 8 9 8 2 0 6
-4 9 -8z m-384 -122 c0 -5 -5 -10 -11 -10 -5 0 -7 5 -4 10 3 6 8 10 11 10 2 0
4 -4 4 -10z m25 0 c3 -5 1 -10 -4 -10 -6 0 -11 5 -11 10 0 6 2 10 4 10 3 0 8
-4 11 -10z m2 -55 c0 -17 -13 -20 -21 -6 -4 5 0 12 6 14 7 3 13 6 14 6 0 1 1
-6 1 -14z m868 -15 c3 -6 -1 -7 -9 -4 -18 7 -21 14 -7 14 6 0 13 -4 16 -10z
m-137 -34 c-7 -8 -17 -12 -22 -9 -4 3 -2 9 5 14 22 13 31 11 17 -5z m-1193
-34 c-3 -3 -11 0 -18 7 -9 10 -8 11 6 5 10 -3 15 -9 12 -12z m1596 1 c13 -16
12 -17 -3 -4 -10 7 -18 15 -18 17 0 8 8 3 21 -13z m-291 -44 c0 -5 5 -7 12 -3
7 4 8 3 4 -5 -6 -9 -11 -9 -22 0 -17 14 -18 19 -4 19 6 0 10 -5 10 -11z m315
-8 c3 -5 2 -12 -3 -15 -5 -3 -9 1 -9 9 0 17 3 19 12 6z m-155 -193 c0 -17 -23
-3 -26 16 -2 14 0 15 12 5 8 -6 14 -16 14 -21z m-1445 12 c-3 -5 -12 -10 -18
-10 -7 0 -6 4 3 10 19 12 23 12 15 0z m1475 -74 c0 -2 -7 -7 -16 -10 -8 -3
-12 -2 -9 4 6 10 25 14 25 6z m15 -116 c3 -6 -1 -7 -9 -4 -18 7 -21 14 -7 14
6 0 13 -4 16 -10z m-1435 -24 c-15 -15 -12 -26 6 -26 8 0 12 5 9 10 -3 6 -1
10 4 10 15 0 14 -15 -3 -29 -11 -9 -18 -6 -34 17 l-21 28 25 0 c16 0 21 -3 14
-10z m44 -78 c-3 -4 -9 -8 -15 -8 -5 0 -9 4 -9 8 0 5 7 9 15 9 8 0 12 -4 9 -9z
m1250 -16 c2 -4 -4 -9 -15 -9 -11 -1 -17 2 -14 8 7 11 22 12 29 1z m-1146 -47
c-3 -3 -9 2 -12 12 -6 14 -5 15 5 6 7 -7 10 -15 7 -18z m-37 1 c-10 -11 -8
-15 6 -19 15 -4 15 -5 2 -6 -9 0 -23 7 -30 16 -10 11 -10 14 -1 9 6 -4 12 -2
12 3 0 6 5 11 11 11 8 0 8 -4 0 -14z m1222 0 c3 -8 -2 -21 -12 -30 -15 -14
-17 -13 -18 7 0 12 1 16 4 9 3 -6 9 -9 14 -6 6 3 5 11 -2 20 -7 8 -7 14 -1 14
5 0 12 -6 15 -14z m-113 -16 c-24 -15 -36 -11 -14 4 10 8 21 12 24 10 2 -3 -2
-9 -10 -14z m-990 -15 c10 -12 10 -15 -4 -15 -9 0 -16 7 -16 15 0 8 2 15 4 15
2 0 9 -7 16 -15z m54 -41 c3 -8 2 -12 -4 -9 -6 3 -10 10 -10 16 0 14 7 11 14
-7z m31 6 c3 -6 -1 -7 -9 -4 -18 7 -21 14 -7 14 6 0 13 -4 16 -10z m746 -97
c13 -16 12 -17 -3 -4 -17 13 -22 21 -14 21 2 0 10 -8 17 -17z m-491 -12 c0 -6
-4 -12 -8 -15 -5 -3 -9 1 -9 9 0 8 4 15 9 15 4 0 8 -4 8 -9z m308 -21 c-7 -11
-14 -17 -17 -15 -2 3 1 11 7 18 7 8 8 18 4 22 -4 5 -1 5 5 1 10 -5 10 -11 1
-26z m-428 6 c0 -3 -4 -8 -10 -11 -5 -3 -10 -1 -10 4 0 6 5 11 10 11 6 0 10
-2 10 -4z m210 0 c0 -2 -7 -6 -15 -10 -8 -3 -15 -1 -15 4 0 6 7 10 15 10 8 0
15 -2 15 -4z"/>
<path d="M1876 2167 c3 -10 9 -15 12 -12 3 3 0 11 -7 18 -10 9 -11 8 -5 -6z"/>
<path d="M1195 2140 c-3 -5 -1 -10 4 -10 6 0 11 5 11 10 0 6 -2 10 -4 10 -3 0
-8 -4 -11 -10z"/>
<path d="M290 2115 c-7 -9 -8 -15 -2 -15 5 0 12 7 16 15 3 8 4 15 2 15 -2 0
-9 -7 -16 -15z"/>
<path d="M1440 2110 c-9 -6 -10 -10 -3 -10 6 0 15 5 18 10 8 12 4 12 -15 0z"/>
<path d="M1939 2083 c-8 -9 -9 -14 -2 -10 6 4 13 1 16 -5 3 -7 4 -3 4 10 -1
26 -1 26 -18 5z"/>
<path d="M1225 1960 c-3 -5 -1 -10 4 -10 6 0 11 5 11 10 0 6 -2 10 -4 10 -3 0
-8 -4 -11 -10z"/>
<path d="M1510 1960 c0 -5 5 -10 11 -10 5 0 7 5 4 10 -3 6 -8 10 -11 10 -2 0
-4 -4 -4 -10z"/>
<path d="M1253 1778 c3 -10 2 -20 -3 -23 -5 -3 -10 0 -13 7 -3 9 -4 8 -3 -1 1
-8 9 -15 18 -17 12 -1 15 4 13 18 -3 12 -7 23 -11 27 -4 3 -4 -2 -1 -11z"/>
<path d="M946 1742 c-3 -6 -1 -14 5 -17 14 -9 20 -2 10 14 -6 8 -11 9 -15 3z"/>
<path d="M1425 1740 c-3 -6 1 -7 9 -4 18 7 21 14 7 14 -6 0 -13 -4 -16 -10z"/>
<path d="M2108 1703 c15 -27 15 -35 0 -45 -11 -8 -11 -9 0 -6 8 2 14 8 14 13
0 6 4 15 9 22 7 8 4 15 -11 23 -19 10 -20 10 -12 -7z"/>
<path d="M110 1700 c0 -5 5 -10 11 -10 5 0 7 5 4 10 -3 6 -8 10 -11 10 -2 0
-4 -4 -4 -10z"/>
<path d="M1095 1687 c-5 -11 -3 -23 4 -30 9 -9 11 -8 5 6 -5 13 -2 16 10 11 9
-3 16 -1 16 6 0 6 -4 9 -9 6 -5 -4 -11 0 -14 6 -3 9 -7 7 -12 -5z"/>
<path d="M1181 1674 c0 -11 3 -14 6 -6 3 7 2 16 -1 19 -3 4 -6 -2 -5 -13z"/>
<path d="M1750 1682 c0 -5 7 -9 15 -9 8 0 12 4 9 9 -3 4 -9 8 -15 8 -5 0 -9
-4 -9 -8z"/>
<path d="M630 1670 c-8 -5 -12 -12 -9 -15 4 -3 12 1 19 10 14 17 11 19 -10 5z"/>
<path d="M1465 1669 c5 -7 1 -17 -9 -24 -15 -11 -14 -12 8 -12 32 0 41 24 14
38 -16 9 -19 8 -13 -2z"/>
<path d="M1140 1666 c0 -2 7 -6 15 -10 8 -3 15 -1 15 4 0 6 -7 10 -15 10 -8 0
-15 -2 -15 -4z"/>
<path d="M832 1474 c4 -16 0 -20 -24 -21 -28 -1 -73 -31 -63 -41 3 -3 -1 -12
-8 -20 -6 -9 -7 -13 -1 -9 6 3 11 0 11 -7 0 -8 -6 -12 -12 -9 -14 5 -8 -44 7
-64 5 -7 6 -18 2 -25 -5 -10 -4 -10 6 -1 11 10 11 15 -1 30 -12 16 -12 17 2 6
9 -7 20 -9 24 -5 5 4 5 1 1 -5 -4 -7 -2 -13 4 -13 6 0 9 -4 5 -9 -3 -5 0 -13
6 -17 8 -4 7 -9 -2 -15 -9 -5 -2 -7 19 -4 19 2 30 0 26 -6 -3 -5 -10 -7 -15
-4 -5 4 -6 -2 -2 -11 4 -11 8 -13 11 -6 2 7 10 12 18 12 9 0 12 -5 8 -12 -5
-7 -3 -8 5 -4 7 5 10 14 7 22 -3 8 0 11 9 8 8 -3 13 -9 12 -12 -1 -4 3 -7 8
-7 6 0 8 6 7 14 -3 12 -1 13 11 3 18 -16 43 8 26 25 -7 7 -3 10 15 8 15 -2 24
1 20 6 -3 5 -9 7 -14 4 -4 -3 -10 2 -13 10 -4 9 -1 12 8 9 10 -4 13 0 10 15
-2 11 0 23 5 26 5 3 7 -3 5 -13 -2 -10 1 -25 5 -32 6 -9 7 -1 5 20 -2 19 -4
39 -4 44 -1 5 -9 2 -18 -5 -17 -13 -17 -12 -4 4 13 16 13 20 0 28 -9 5 -10 9
-2 9 6 0 11 9 10 19 0 11 -5 17 -9 15 -4 -3 -8 0 -8 6 0 6 -4 8 -10 5 -5 -3
-10 -1 -10 5 0 7 -8 9 -19 5 -11 -3 -24 1 -32 12 -13 16 -12 17 4 4 9 -8 20
-11 24 -7 3 3 1 6 -6 6 -7 0 -10 4 -7 9 4 5 -2 8 -11 7 -10 -2 -18 -8 -18 -14
0 -6 -4 -14 -9 -19 -5 -4 -7 -4 -4 2 3 6 -1 17 -10 24 -14 13 -15 13 -10 -5z
m-47 -44 c4 -6 1 -9 -7 -8 -7 2 -12 -3 -10 -10 1 -8 -2 -11 -8 -7 -8 5 -7 11
1 21 14 17 16 17 24 4z m170 -10 c3 -5 -1 -10 -10 -10 -9 0 -13 5 -10 10 3 6
8 10 10 10 2 0 7 -4 10 -10z"/>
<path d="M1321 1472 c-6 -2 -9 -7 -6 -12 3 -4 -2 -13 -10 -20 -8 -7 -15 -9
-15 -4 0 5 -10 -2 -21 -16 -17 -21 -19 -22 -10 -3 18 35 12 40 -8 9 -17 -26
-18 -31 -5 -44 11 -10 12 -18 5 -25 -7 -7 -4 -18 8 -36 10 -14 17 -34 15 -44
-2 -18 -2 -18 17 -1 11 10 20 14 19 9 -5 -22 1 -36 12 -29 7 5 8 3 3 -6 -6
-10 -11 -9 -22 5 -7 11 -13 14 -13 8 0 -19 28 -35 51 -28 12 4 19 3 16 -2 -4
-5 0 -10 8 -10 8 0 15 7 15 16 0 13 2 13 9 2 5 -8 14 -10 21 -6 9 6 11 4 4 -6
-4 -8 6 -3 23 11 34 28 36 38 3 20 -12 -6 -24 -10 -26 -7 -3 2 10 12 28 20 18
9 26 17 18 17 -10 0 -11 3 -4 8 15 9 14 83 0 76 -6 -3 -2 2 8 10 18 15 15 21
-9 16 -5 -1 -5 4 2 11 13 13 7 39 -9 39 -6 0 -5 -7 2 -17 7 -10 1 -6 -12 8
-23 25 -86 41 -117 31z m89 -16 c0 -3 -4 -8 -10 -11 -5 -3 -10 -1 -10 4 0 6 5
11 10 11 6 0 10 -2 10 -4z"/>
<path d="M1290 1454 c0 -8 5 -12 10 -9 6 4 8 11 5 16 -9 14 -15 11 -15 -7z"/>
<path d="M467 1409 c7 -7 15 -10 18 -7 3 3 -2 9 -12 12 -14 6 -15 5 -6 -5z"/>
<path d="M1480 1370 c-6 -11 -7 -20 -2 -20 6 0 12 9 15 20 3 11 3 20 1 20 -2
0 -8 -9 -14 -20z"/>
<path d="M290 1369 c0 -5 5 -7 10 -4 6 3 10 8 10 11 0 2 -4 4 -10 4 -5 0 -10
-5 -10 -11z"/>
<path d="M1227 1363 c4 -11 2 -14 -5 -9 -8 5 -10 2 -6 -8 3 -9 11 -16 17 -16
6 0 8 -3 4 -6 -3 -4 0 -13 8 -20 24 -24 27 -15 6 14 -14 20 -17 32 -10 39 7 7
6 12 -5 16 -11 4 -13 1 -9 -10z"/>
<path d="M2124 1358 c-4 -6 -3 -8 4 -4 6 3 13 2 16 -3 4 -5 2 -12 -4 -16 -14
-9 -12 -27 3 -22 11 3 12 13 8 47 -1 14 -18 13 -27 -2z"/>
<path d="M1486 1323 c-6 -14 -5 -15 5 -6 7 7 10 15 7 18 -3 3 -9 -2 -12 -12z"/>
<path d="M1296 1085 c-24 -18 -40 -20 -30 -3 4 7 3 8 -5 4 -6 -4 -9 -12 -6
-17 4 -5 -1 -9 -10 -9 -9 0 -13 -5 -10 -10 4 -7 14 -6 28 1 21 10 21 10 2 -6
-17 -13 -21 -13 -34 -1 -12 13 -12 17 0 32 13 16 12 16 -8 3 -21 -13 -22 -15
-6 -39 16 -25 16 -25 -4 -7 -22 19 -38 23 -27 5 4 -7 3 -8 -5 -4 -9 6 -9 11 1
24 11 13 11 15 -3 10 -9 -4 -21 -2 -27 4 -6 6 -12 6 -16 -1 -4 -6 -12 -11 -18
-11 -6 0 -5 7 3 18 13 15 12 16 -3 4 -9 -8 -14 -20 -11 -28 5 -13 8 -13 23 1
15 14 18 14 23 1 4 -11 1 -13 -10 -9 -10 4 -14 2 -10 -4 14 -22 -26 -6 -45 18
-11 13 -17 18 -13 12 3 -7 1 -13 -5 -13 -6 0 -8 -4 -5 -10 3 -5 0 -7 -9 -4 -8
3 -14 11 -12 17 1 7 1 9 -1 4 -3 -4 -10 -4 -15 -1 -7 5 -8 2 -3 -6 6 -9 2 -10
-15 -5 -15 5 -20 3 -16 -3 3 -6 1 -14 -5 -18 -8 -5 -9 -3 -4 6 6 10 4 12 -10
6 -18 -6 -18 -6 -2 12 9 10 17 23 17 28 0 5 -4 3 -9 -5 -5 -8 -20 -15 -33 -16
-14 -2 -22 -8 -20 -16 2 -9 -4 -7 -17 5 -26 24 -26 26 -1 21 11 -2 20 0 20 4
0 5 -13 8 -29 7 -26 -1 -28 -3 -20 -21 9 -17 8 -17 -10 3 -13 15 -21 18 -24
10 -3 -10 -8 -10 -23 2 -17 14 -18 14 -6 -1 7 -9 26 -22 41 -29 28 -11 28 -13
13 -31 -20 -23 -30 -16 -11 8 9 11 10 14 2 9 -7 -4 -13 -3 -13 2 0 5 -8 12
-18 14 -11 3 -19 0 -19 -7 0 -8 7 -11 16 -7 9 3 13 2 9 -3 -9 -10 10 -47 21
-41 10 7 43 -28 36 -37 -3 -4 1 -3 7 3 18 15 41 12 35 -4 -4 -10 1 -12 16 -9
18 4 19 3 7 -6 -8 -6 -10 -11 -5 -11 6 0 16 5 23 12 9 9 12 9 12 -3 0 -12 2
-12 10 1 6 10 10 11 10 3 0 -7 5 -13 11 -13 5 0 7 5 3 11 -4 8 -1 8 12 1 11
-5 28 -6 39 -1 28 11 43 11 25 -1 -21 -14 5 -13 31 0 15 9 19 7 19 -7 0 -14 2
-15 9 -5 4 8 11 13 15 13 3 -1 7 -1 9 0 24 7 47 7 47 -1 0 -6 5 -10 11 -10 5
0 7 5 3 11 -5 8 1 10 20 7 19 -4 26 -2 23 7 -7 18 6 35 32 40 12 2 19 0 16 -6
-4 -5 -11 -6 -17 -3 -7 4 -8 2 -4 -4 5 -9 12 -8 27 1 18 11 18 13 2 25 -20 14
-10 16 16 3 13 -8 17 -5 18 12 1 12 -2 26 -6 32 -5 5 -7 18 -6 27 2 11 -2 15
-11 11 -8 -3 -12 -9 -9 -13 7 -11 -22 -6 -32 5 -4 4 -2 5 6 0 9 -5 12 -4 7 3
-9 14 -7 15 -30 -3z m-395 -79 c-8 -10 -9 -16 -1 -21 5 -3 10 -1 10 6 0 7 3
10 6 6 3 -3 3 -11 -1 -17 -5 -8 -13 -6 -27 6 -18 17 -18 19 -1 25 26 11 27 10
14 -5z"/>
<path d="M1806 1092 c-3 -4 4 -9 15 -9 23 -2 25 3 4 10 -8 4 -16 3 -19 -1z"/>
<path d="M507 1059 c7 -7 15 -10 18 -7 3 3 -2 9 -12 12 -14 6 -15 5 -6 -5z"/>
<path d="M1375 1060 c3 -5 8 -10 11 -10 2 0 4 5 4 10 0 6 -5 10 -11 10 -5 0
-7 -4 -4 -10z"/>
<path d="M1295 971 c-3 -5 -1 -12 5 -16 5 -3 10 1 10 9 0 18 -6 21 -15 7z"/>
<path d="M227 949 c7 -7 15 -10 18 -7 3 3 -2 9 -12 12 -14 6 -15 5 -6 -5z"/>
<path d="M1196 928 c3 -5 10 -6 15 -3 13 9 11 12 -6 12 -8 0 -12 -4 -9 -9z"/>
<path d="M1880 846 c0 -2 8 -10 18 -17 15 -13 16 -12 3 4 -13 16 -21 21 -21
13z"/>
<path d="M735 800 c3 -5 8 -10 11 -10 2 0 4 5 4 10 0 6 -5 10 -11 10 -5 0 -7
-4 -4 -10z"/>
<path d="M1077 790 c-3 -12 -10 -19 -15 -16 -5 3 -15 0 -23 -7 -8 -7 -12 -11
-10 -9 2 1 14 -6 25 -15 12 -10 15 -11 9 -3 -19 20 -16 35 3 19 14 -11 18 -10
30 6 11 14 14 15 14 4 0 -8 -5 -20 -12 -27 -9 -9 -9 -12 -1 -12 7 0 15 10 18
21 6 17 9 19 16 8 6 -10 9 -10 9 -2 0 7 -10 18 -22 24 -13 7 -26 16 -29 21 -3
5 -9 0 -12 -12z m13 -20 c0 -5 -5 -10 -11 -10 -5 0 -7 5 -4 10 3 6 8 10 11 10
2 0 4 -4 4 -10z"/>
<path d="M1315 780 c-3 -5 -1 -10 4 -10 6 0 11 5 11 10 0 6 -2 10 -4 10 -3 0
-8 -4 -11 -10z"/>
<path d="M1786 713 c-6 -15 -8 -15 -16 -3 -6 9 -10 10 -10 3 0 -19 17 -24 30
-8 7 9 11 18 8 21 -3 3 -9 -3 -12 -13z"/>
<path d="M1675 640 c-16 -7 -17 -9 -3 -9 9 -1 20 4 23 9 7 11 7 11 -20 0z"/>
<path d="M1270 480 c-8 -15 -8 -18 3 -14 8 3 14 11 14 19 0 20 -4 19 -17 -5z"/>
<path d="M1218 478 c5 -5 16 -8 23 -6 8 3 3 7 -10 11 -17 4 -21 3 -13 -5z"/>
<path d="M1185 461 c-6 -11 9 -23 19 -14 9 9 7 23 -3 23 -6 0 -12 -4 -16 -9z"/>
<path d="M771 2564 c0 -11 3 -14 6 -6 3 7 2 16 -1 19 -3 4 -6 -2 -5 -13z"/>
<path d="M1445 2561 c-3 -5 -2 -12 3 -15 5 -3 9 1 9 9 0 17 -3 19 -12 6z"/>
<path d="M720 2550 c-9 -6 -10 -10 -3 -10 6 0 15 5 18 10 8 12 4 12 -15 0z"/>
<path d="M600 2520 c0 -5 5 -10 11 -10 5 0 7 5 4 10 -3 6 -8 10 -11 10 -2 0
-4 -4 -4 -10z"/>
<path d="M1860 2339 c0 -5 -4 -7 -10 -4 -14 9 -12 -1 3 -13 10 -8 13 -6 14 9
1 10 0 19 -3 19 -2 0 -4 -5 -4 -11z"/>
<path d="M200 2139 c0 -5 5 -7 10 -4 6 3 10 8 10 11 0 2 -4 4 -10 4 -5 0 -10
-5 -10 -11z"/>
<path d="M2190 1759 c0 -4 7 -10 16 -13 8 -3 13 -10 9 -15 -9 -15 15 -25 28
-12 9 9 8 11 -5 6 -17 -7 -20 9 -6 31 4 6 -3 10 -18 10 -13 0 -24 -3 -24 -7z"/>
<path d="M2223 1665 c0 -7 6 -11 14 -8 7 3 13 6 13 8 0 2 -6 5 -13 8 -8 3 -14
-1 -14 -8z"/>
<path d="M2246 1473 c-6 -14 -5 -15 5 -6 7 7 10 15 7 18 -3 3 -9 -2 -12 -12z"/>
<path d="M2230 1306 c0 -2 7 -7 16 -10 8 -3 12 -2 9 4 -6 10 -25 14 -25 6z"/>
<path d="M57 1064 c-8 -8 3 -34 15 -34 7 0 6 5 -1 13 -6 8 -8 17 -4 20 3 4 4
7 1 7 -2 0 -7 -3 -11 -6z"/>
<path d="M2120 1000 c-9 -6 -10 -10 -3 -10 6 0 15 5 18 10 8 12 4 12 -15 0z"/>
<path d="M2050 875 c-11 -13 -10 -14 4 -9 9 3 16 10 16 15 0 13 -6 11 -20 -6z"/>
<path d="M520 520 c-9 -6 -10 -10 -3 -10 6 0 15 5 18 10 8 12 4 12 -15 0z"/>
<path d="M1780 486 c0 -2 9 -6 20 -9 11 -3 18 -1 14 4 -5 9 -34 13 -34 5z"/>
<path d="M1350 378 c-17 -25 -17 -28 -3 -12 18 20 21 20 31 5 10 -13 11 -12 3
5 -6 12 -7 24 -4 28 3 3 4 6 0 6 -3 0 -15 -15 -27 -32z"/>
<path d="M1230 360 c0 -5 5 -10 10 -10 6 0 10 5 10 10 0 6 -4 10 -10 10 -5 0
-10 -4 -10 -10z"/>
<path d="M1936 328 c3 -5 10 -6 15 -3 13 9 11 12 -6 12 -8 0 -12 -4 -9 -9z"/>
<path d="M2120 146 c7 -7 13 -7 20 0 6 6 3 10 -10 10 -13 0 -16 -4 -10 -10z"/>
<path d="M2501 66 c-9 -11 -9 -16 1 -22 7 -4 10 -4 6 1 -4 4 -3 14 3 22 6 7 9
13 6 13 -2 0 -10 -6 -16 -14z"/>
</g>
</svg>
